<svg width="48" height="45" viewBox="0 0 48 45" fill="none" xmlns="http://www.w3.org/2000/svg">
<path d="M31.436 39.3739C39.3008 35.0929 43.8405 26.1853 42.8137 16.9353C42.6736 15.6403 42.1379 14.437 40.9418 13.6343C38.9021 12.2583 36.1112 13.142 33.9914 14.3896C31.5484 15.8268 29.2193 17.6004 26.216 17.368C25.9081 17.3451 25.6202 17.3068 25.3708 17.2671C24.9938 17.2026 24.6211 17.1153 24.2548 17.0056C24.1316 16.9705 24.0392 16.9399 23.9761 16.9185L23.8838 16.8879H23.9823L24.2717 16.9017C24.6447 16.9167 25.0182 16.9126 25.3908 16.8894C25.9778 16.8553 26.56 16.7636 27.1288 16.6158L27.3797 16.5424L27.6337 16.4552C27.7215 16.4277 27.8015 16.3925 27.8862 16.3604L28.014 16.3084L28.1556 16.2488C28.5204 16.0935 28.8677 15.9003 29.1916 15.6724C31.1005 14.304 32.7122 12.5243 34.6734 11.2936C33.7058 10.9364 32.878 10.2824 32.3101 9.42634C31.7421 8.57031 31.4634 7.55683 31.5146 6.5329C31.5658 5.50897 31.9441 4.52786 32.5946 3.73189C33.2451 2.93593 34.1341 2.36651 35.1324 2.10625C36.1308 1.84599 37.1867 1.90841 38.147 2.28447C39.1072 2.66053 39.9219 3.33066 40.4728 4.19765C41.0236 5.06464 41.2821 6.0834 41.2106 7.10612C41.1391 8.12885 40.7413 9.10236 40.0751 9.88541C43.7851 10.2325 46.5652 13.3117 47.1009 17.1188C47.1132 17.2075 47.124 17.2961 47.1348 17.3863C47.5797 21.3616 46.7192 25.401 45.0674 29.0261C40.4492 39.1568 29.7673 46.7617 18.2819 44.3857C12.3029 43.1503 7.07357 39.2133 3.44214 34.1679C10.6835 42.2284 22.4183 44.2894 31.436 39.3739Z" fill="#04668E"/>
<path d="M1.29316 14.1588C2.57547 11.5825 5.02773 9.51388 7.88485 9.06285C8.37702 8.98543 8.87532 8.95318 9.37344 8.96653C8.73898 7.91784 8.45403 6.69698 8.55921 5.478C8.66439 4.25902 9.15433 3.10412 9.95919 2.17794C10.7641 1.25176 11.8428 0.601565 13.0415 0.320048C14.2403 0.0385307 15.498 0.140056 16.6352 0.610152C17.7725 1.08025 18.7313 1.89492 19.375 2.93804C20.0187 3.98116 20.3144 5.19948 20.22 6.41933C20.1256 7.63918 19.6459 8.79831 18.8493 9.73147C18.0526 10.6646 16.9797 11.3242 15.7835 11.6162C16.6225 12.3166 17.379 13.1091 18.0387 13.9784C20.1661 16.7748 21.2314 20.3723 24.0008 22.6764C24.2229 22.863 24.4575 23.0347 24.7027 23.1902C24.7567 23.2274 24.8127 23.2616 24.8705 23.2926L25.0322 23.3874C25.1415 23.4424 25.2431 23.5005 25.34 23.5403C25.6463 23.6856 25.9666 23.7998 26.296 23.8812C26.4084 23.9118 26.4977 23.9256 26.5562 23.9378L26.6439 23.9561H26.5546C26.4946 23.9561 26.4007 23.9684 26.2868 23.9668C25.9323 23.9667 25.5788 23.9293 25.2323 23.8552C24.6632 23.7327 24.1144 23.5309 23.6021 23.2559C20.6772 21.727 18.8299 18.4291 16.5547 16.1571C14.4596 14.067 11.0837 11.6987 8.00954 13.1497C7.12753 13.5877 6.39663 14.2764 5.9098 15.1281C5.68914 15.499 5.50756 15.8914 5.36793 16.2993C4.97847 17.4811 4.06869 24.002 8.41748 29.8165C9.11482 30.7507 13.7623 36.7518 21.6655 36.9459C27.7569 37.0988 31.9548 33.7015 33.2864 32.5915C40.3815 26.6746 41.0865 17.2273 40.9757 17.1922C40.8356 17.1494 43.1416 29.9847 30.537 37.7777C22.8262 42.5464 11.9104 40.3019 5.67735 33.7459C2.76328 30.688 1.0761 26.6792 0.324877 22.5679C-0.187742 19.7516 0.0169965 16.735 1.29316 14.1588Z" fill="#30B996"/>
</svg>
