<svg width="369" height="651" viewBox="0 0 369 651" fill="none" xmlns="http://www.w3.org/2000/svg">
<path d="M138.746 571.455C253.206 508.967 319.275 378.947 304.331 243.928C302.293 225.026 294.496 207.462 277.089 195.745C247.404 175.66 206.786 188.559 175.936 206.77C140.381 227.748 106.485 253.636 62.775 250.244C58.2943 249.909 54.1048 249.351 50.4754 248.771C44.988 247.831 39.5636 246.556 34.2327 244.955C32.4404 244.442 31.0962 243.995 30.1777 243.683L28.8334 243.236H30.2672L34.4791 243.437C39.9078 243.656 45.3441 243.597 50.7666 243.259C59.3093 242.76 67.7817 241.422 76.0603 239.264L79.7122 238.193L83.4088 236.921C84.6858 236.519 85.8508 236.006 87.083 235.537L88.9424 234.778L91.0036 233.908C96.313 231.64 101.367 228.82 106.081 225.494C133.862 205.52 157.318 179.543 185.861 161.578C171.78 156.364 159.732 146.818 151.466 134.323C143.2 121.828 139.145 107.034 139.889 92.0883C140.634 77.1424 146.139 62.8215 155.607 51.2032C165.074 39.5848 178.011 31.2732 192.542 27.4743C207.072 23.6753 222.439 24.5865 236.414 30.0757C250.389 35.5649 262.245 45.3466 270.262 58.0017C278.279 70.6568 282.04 85.5272 281 100.455C279.959 115.384 274.171 129.594 264.475 141.024C318.468 146.09 358.929 191.036 366.726 246.606C366.905 247.901 367.062 249.195 367.218 250.512C373.693 308.536 361.169 367.499 337.13 420.413C269.919 568.286 114.46 679.292 -52.6936 644.611C-139.709 626.579 -215.815 569.112 -268.665 495.465C-163.278 613.121 7.50513 643.205 138.746 571.455Z" fill="#13668E" fill-opacity="0.07"/>
<path d="M-301.097 204.034C-282.413 166.474 -246.681 136.314 -205.051 129.738C-197.88 128.61 -190.619 128.139 -183.361 128.334C-192.605 113.045 -196.757 95.2452 -195.225 77.4731C-193.692 59.701 -186.554 42.8632 -174.826 29.36C-163.099 15.8568 -147.381 6.37733 -129.914 2.27296C-112.447 -1.83141 -94.1218 -0.351223 -77.551 6.50252C-60.9801 13.3563 -47.0093 25.2337 -37.63 40.4418C-28.2508 55.6499 -23.9417 73.4124 -25.3173 91.1972C-26.6928 108.982 -33.6826 125.881 -45.2904 139.486C-56.8982 153.091 -72.5313 162.708 -89.9615 166.964C-77.737 177.177 -66.7136 188.73 -57.1012 201.404C-26.1027 242.174 -10.581 294.624 29.7709 328.217C33.0082 330.938 36.4252 333.44 39.9991 335.707C40.7853 336.25 41.6016 336.748 42.444 337.2L44.7992 338.582C46.3917 339.385 47.8721 340.232 49.2852 340.811C53.748 342.93 58.4148 344.596 63.2144 345.782C64.8517 346.228 66.1527 346.429 67.0051 346.607L68.2836 346.874H66.9827C66.1079 346.874 64.7396 347.053 63.0798 347.031C57.9148 347.029 52.7644 346.484 47.7151 345.403C39.4227 343.617 31.4258 340.675 23.9615 336.665C-18.6559 314.374 -45.5721 266.293 -78.724 233.168C-109.251 202.697 -158.441 168.168 -203.234 189.322C-216.086 195.708 -226.735 205.749 -233.829 218.166C-237.044 223.573 -239.69 229.295 -241.724 235.241C-247.399 252.472 -260.655 347.543 -197.29 432.316C-187.129 445.936 -119.412 533.428 -4.25568 536.258C84.5006 538.488 145.668 488.957 165.07 472.774C268.451 386.508 278.724 248.772 277.109 248.259C275.068 247.635 308.668 434.768 125.01 548.385C12.6567 617.91 -146.396 585.187 -237.216 489.604C-279.676 445.022 -304.26 386.575 -315.206 326.634C-322.675 285.574 -319.692 241.594 -301.097 204.034Z" fill="#13668E" fill-opacity="0.07"/>
</svg>
