<svg width="153" height="32" viewBox="0 0 153 32" fill="none" xmlns="http://www.w3.org/2000/svg">
<g id="Group 1597880468">
<path id="Vector" d="M49.0924 25.9202C48.3249 25.9627 47.5657 25.7398 46.9374 25.2877C46.6748 25.089 46.4636 24.828 46.322 24.5272C46.1804 24.2264 46.1126 23.8949 46.1245 23.5614V11.3458C46.1182 11.294 46.1236 11.2415 46.1402 11.1922C46.1567 11.143 46.1841 11.0982 46.2202 11.0614C46.2563 11.0245 46.3002 10.9966 46.3484 10.9796C46.3967 10.9627 46.4481 10.9572 46.4987 10.9636H48.6666C48.9117 10.9636 49.0279 11.0954 49.0279 11.3458V22.6126C49.0279 23.1134 49.2473 23.3638 49.6988 23.3638C49.8903 23.3719 50.0818 23.3496 50.2666 23.2979C50.5247 23.2979 50.6667 23.3769 50.6795 23.6142L50.8731 25.2613C50.8824 25.3093 50.8816 25.3589 50.8705 25.4065C50.8595 25.4542 50.8386 25.4988 50.8093 25.5376C50.7799 25.5762 50.7428 25.6081 50.7004 25.6309C50.658 25.6537 50.6113 25.6671 50.5634 25.6699C50.0885 25.8301 49.5924 25.9145 49.0924 25.9202Z" fill="#8C96A2"/>
<path id="Vector_2" d="M61.2898 24.5108C60.2005 25.4299 58.8317 25.9327 57.4187 25.9327C56.0056 25.9327 54.6368 25.4299 53.5475 24.5108C52.5901 23.5237 52.053 22.1906 52.053 20.8013C52.053 19.4119 52.5901 18.0788 53.5475 17.0917C54.639 16.1775 56.007 15.6777 57.4187 15.6777C58.8304 15.6777 60.1984 16.1775 61.2898 17.0917C62.2251 18.0879 62.7473 19.4146 62.7473 20.7948C62.7473 22.1748 62.2251 23.5015 61.2898 24.4977V24.5108ZM55.5864 22.7713C56.0918 23.239 56.7495 23.498 57.4316 23.498C58.1136 23.498 58.7714 23.239 59.2768 22.7713C59.7343 22.2342 59.9863 21.5461 59.9863 20.8342C59.9863 20.1223 59.7343 19.4343 59.2768 18.8971C58.7714 18.4295 58.1136 18.1705 57.4316 18.1705C56.7495 18.1705 56.0918 18.4295 55.5864 18.8971C55.1288 19.4343 54.8769 20.1223 54.8769 20.8342C54.8769 21.5461 55.1288 22.2342 55.5864 22.7713Z" fill="#8C96A2"/>
<path id="Vector_3" d="M74.6812 16.0081C74.9263 16.0081 75.0425 16.1399 75.0425 16.3903V25.8386C75.065 26.4763 74.9481 27.1111 74.7004 27.697C74.4527 28.2828 74.0801 28.8048 73.6102 29.2253C72.5668 30.1339 71.225 30.6047 69.8551 30.5431C68.6178 30.5875 67.397 30.2425 66.3582 29.5547C65.9145 29.2572 65.5356 28.8697 65.2448 28.4163C64.9539 27.963 64.7576 27.4534 64.6678 26.9192C64.6678 26.6556 64.6678 26.537 65.0162 26.537H67.1841C67.2761 26.5403 67.3652 26.5705 67.4408 26.6243C67.5163 26.6781 67.5751 26.7531 67.6099 26.8402C67.7504 27.2404 68.0308 27.5736 68.397 27.7758C68.8433 28.0109 69.3401 28.1287 69.8422 28.1184C70.1452 28.1354 70.4485 28.0904 70.7342 27.9863C71.0201 27.8823 71.2827 27.7211 71.5068 27.5122C71.7116 27.2937 71.8709 27.0351 71.9751 26.7519C72.0793 26.4689 72.1263 26.1671 72.1133 25.865V25.0348C71.3371 25.6178 70.3925 25.9193 69.4293 25.8913C68.7552 25.9164 68.0831 25.8021 67.4534 25.5552C66.8236 25.3084 66.2492 24.9342 65.7647 24.4549C64.8343 23.4721 64.3143 22.1586 64.3143 20.7916C64.3143 19.4246 64.8343 18.1111 65.7647 17.1282C66.2516 16.6533 66.8267 16.2826 67.456 16.0382C68.0855 15.7938 68.7563 15.6805 69.4293 15.7051C70.4203 15.6783 71.3904 15.9993 72.1778 16.6143V16.4034C72.1718 16.353 72.1771 16.3017 72.1929 16.2535C72.2088 16.2053 72.235 16.1613 72.2696 16.1248C72.3041 16.0881 72.3463 16.0599 72.3929 16.042C72.4396 16.024 72.4895 16.017 72.5392 16.0213L74.6812 16.0081ZM69.6745 23.5457C70.0069 23.5562 70.3376 23.492 70.643 23.3577C70.9485 23.2234 71.2214 23.0221 71.4423 22.7683C71.8713 22.2025 72.1041 21.5072 72.1041 20.7916C72.1041 20.0761 71.8713 19.3808 71.4423 18.815C71.2221 18.5645 70.951 18.3663 70.6478 18.2343C70.3446 18.1023 70.0168 18.0396 69.6874 18.0507C69.3511 18.0399 69.0165 18.1038 68.7068 18.2381C68.3972 18.3723 68.1197 18.5736 67.8938 18.8281C67.4185 19.3693 67.1685 20.0784 67.197 20.8048C67.1736 21.524 67.418 22.2256 67.8808 22.7683C68.1073 23.022 68.3849 23.223 68.6945 23.3572C69.004 23.4913 69.3383 23.5557 69.6745 23.5457Z" fill="#8C96A2"/>
<path id="Vector_4" d="M86.1791 24.5104C85.0876 25.4247 83.7197 25.9244 82.3079 25.9244C80.8963 25.9244 79.5282 25.4247 78.4368 24.5104C77.5006 23.512 76.978 22.1832 76.978 20.8009C76.978 19.4186 77.5006 18.0897 78.4368 17.0914C79.5292 16.1794 80.8969 15.6812 82.3079 15.6812C83.7189 15.6812 85.0866 16.1794 86.1791 17.0914C87.1144 18.0875 87.6366 19.4142 87.6366 20.7943C87.6366 22.1744 87.1144 23.5011 86.1791 24.4972V24.5104ZM80.4627 22.7709C80.7101 23.0112 81.0017 23.199 81.3206 23.3235C81.6396 23.4478 81.9795 23.5065 82.3208 23.4957C82.66 23.5047 82.9975 23.4453 83.3141 23.321C83.6307 23.1965 83.9202 23.0097 84.1661 22.7709C84.6161 22.2301 84.8632 21.5436 84.8632 20.8338C84.8632 20.1241 84.6161 19.4375 84.1661 18.8967C83.9202 18.658 83.6307 18.4711 83.3141 18.3467C82.9975 18.2223 82.66 18.163 82.3208 18.1719C81.9795 18.1612 81.6396 18.2198 81.3206 18.3442C81.0017 18.4686 80.7101 18.6564 80.4627 18.8967C80.0127 19.4375 79.7656 20.1241 79.7656 20.8338C79.7656 21.5436 80.0127 22.2301 80.4627 22.7709Z" fill="#8C96A2"/>
<path id="Vector_5" d="M92.2968 13.7683C91.9558 14.0732 91.5178 14.2412 91.0645 14.2412C90.6112 14.2412 90.1733 14.0732 89.8322 13.7683C89.6775 13.6193 89.5543 13.4394 89.4702 13.2401C89.3859 13.0406 89.3425 12.8258 89.3425 12.6087C89.3425 12.3915 89.3859 12.1766 89.4702 11.9772C89.5543 11.7778 89.6775 11.5981 89.8322 11.449C90.1768 11.1517 90.6133 10.9886 91.0645 10.9886C91.5156 10.9886 91.9522 11.1517 92.2968 11.449C92.4515 11.5981 92.5747 11.7778 92.6589 11.9772C92.7431 12.1766 92.7865 12.3915 92.7865 12.6087C92.7865 12.8258 92.7431 13.0406 92.6589 13.2401C92.5747 13.4394 92.4515 13.6193 92.2968 13.7683ZM92.5678 25.9181C91.8008 25.9565 91.0429 25.734 90.4128 25.2855C90.1543 25.0838 89.9468 24.8219 89.8076 24.5216C89.6684 24.2213 89.6016 23.8913 89.6128 23.5592V16.3907C89.6065 16.3389 89.612 16.2864 89.6285 16.2371C89.6451 16.1878 89.6725 16.1431 89.7086 16.1062C89.7446 16.0694 89.7885 16.0414 89.8368 16.0244C89.885 16.0075 89.9363 16.002 89.9871 16.0085H92.1549C92.4001 16.0085 92.5162 16.1403 92.5162 16.3907V22.6105C92.5162 23.1112 92.7356 23.3615 93.1743 23.3615C93.37 23.3688 93.5656 23.3465 93.755 23.2957C94.013 23.2957 94.155 23.3748 94.1679 23.6119L94.3614 25.2592C94.3707 25.3072 94.3698 25.3567 94.3589 25.4044C94.3478 25.4519 94.327 25.4967 94.2976 25.5353C94.2683 25.5741 94.2311 25.6059 94.1887 25.6287C94.1463 25.6516 94.0996 25.6648 94.0517 25.6677C93.5727 25.8288 93.0721 25.9132 92.5678 25.9181Z" fill="#8C96A2"/>
<path id="Vector_6" d="M102.336 15.694C103.014 15.6667 103.689 15.7787 104.323 16.0231C104.958 16.2676 105.536 16.6397 106.027 17.1173C106.94 18.1174 107.447 19.4335 107.447 20.8005C107.447 22.1673 106.94 23.4835 106.027 24.4836C105.539 24.9654 104.961 25.3411 104.326 25.588C103.692 25.8348 103.015 25.9478 102.336 25.9199C101.37 25.9418 100.423 25.6412 99.6396 25.0634V29.8205C99.6396 30.0709 99.5106 30.1895 99.2654 30.1895H97.0976C97.0481 30.1989 96.9971 30.1959 96.949 30.1807C96.901 30.1655 96.8572 30.1386 96.8216 30.1023C96.7861 30.0659 96.7597 30.0213 96.7448 29.9721C96.7299 29.9231 96.727 29.871 96.7363 29.8205V19.0149C96.7514 18.9092 96.7422 18.8013 96.7093 18.6999C96.6765 18.5985 96.6207 18.5063 96.5468 18.4308C96.4728 18.3553 96.3826 18.2985 96.2833 18.2648C96.184 18.2312 96.0784 18.2219 95.9749 18.2373H95.549C95.2652 18.2373 95.1232 18.132 95.1232 17.9211V16.3661C95.1166 16.2699 95.1423 16.1742 95.1964 16.0952C95.2504 16.016 95.3293 15.9582 95.42 15.9313C95.8664 15.7656 96.3388 15.6852 96.8137 15.694C97.2872 15.6513 97.7625 15.7538 98.1786 15.9885C98.5947 16.2234 98.9327 16.5797 99.1493 17.0118C99.5649 16.5825 100.062 16.2442 100.61 16.0176C101.158 15.791 101.745 15.6809 102.336 15.694ZM100.324 22.7705C100.554 23.0161 100.83 23.2115 101.136 23.345C101.442 23.4785 101.771 23.5473 102.104 23.5473C102.438 23.5473 102.767 23.4785 103.072 23.345C103.378 23.2115 103.655 23.0161 103.885 22.7705C104.37 22.2185 104.624 21.4951 104.595 20.7544C104.628 20.0128 104.373 19.2879 103.885 18.7381C103.655 18.4925 103.378 18.2971 103.072 18.1636C102.767 18.0301 102.438 17.9613 102.104 17.9613C101.771 17.9613 101.442 18.0301 101.136 18.1636C100.83 18.2971 100.554 18.4925 100.324 18.7381C99.854 19.2976 99.6095 20.0181 99.6396 20.7544C99.6134 21.49 99.8574 22.209 100.324 22.7705Z" fill="#8C96A2"/>
<path id="Vector_7" d="M113.535 25.9183C112.377 25.967 111.228 25.684 110.218 25.1013C109.814 24.8523 109.469 24.5132 109.209 24.1094C108.951 23.7057 108.784 23.2475 108.722 22.7689C108.722 22.5053 108.813 22.3736 109.096 22.3736H110.993C111.083 22.3772 111.171 22.4061 111.246 22.4573C111.321 22.5084 111.381 22.5798 111.419 22.6635C111.69 23.375 112.399 23.7309 113.535 23.7309C113.931 23.7494 114.325 23.6679 114.684 23.4936C114.807 23.4367 114.913 23.3466 114.991 23.2328C115.067 23.1191 115.113 22.9861 115.123 22.848C115.123 22.5053 114.916 22.2681 114.503 22.11C114.013 21.9435 113.506 21.833 112.993 21.7806C112.385 21.7102 111.782 21.6002 111.187 21.4511C110.608 21.3174 110.082 21.0099 109.677 20.5682C109.438 20.268 109.262 19.9208 109.16 19.5482C109.058 19.1757 109.032 18.7857 109.085 18.4025C109.137 18.0194 109.266 17.6513 109.463 17.3211C109.66 16.9908 109.922 16.7057 110.232 16.4831C111.162 15.8781 112.253 15.5834 113.354 15.6398C114.421 15.603 115.476 15.8723 116.399 16.4173C116.772 16.6326 117.093 16.9301 117.338 17.288C117.583 17.6459 117.748 18.0552 117.819 18.4861C117.819 18.7497 117.703 18.8815 117.471 18.8815H115.561C115.48 18.8863 115.401 18.8664 115.331 18.824C115.263 18.7817 115.207 18.719 115.174 18.6443C115.046 18.3322 114.806 18.0821 114.503 17.9459C114.16 17.7631 113.779 17.6725 113.393 17.6824C113.014 17.6614 112.637 17.7383 112.296 17.9064C112.176 17.9538 112.073 18.0367 111.999 18.1448C111.926 18.2529 111.885 18.3809 111.884 18.5125C111.892 18.6927 111.956 18.8655 112.068 19.0054C112.179 19.1453 112.332 19.2451 112.502 19.29C112.998 19.4807 113.513 19.6133 114.038 19.6854C114.642 19.7665 115.24 19.8808 115.832 20.028C116.411 20.1616 116.936 20.4691 117.342 20.9108C117.559 21.1542 117.726 21.439 117.835 21.7489C117.943 22.0587 117.99 22.3876 117.974 22.7162C117.985 23.1717 117.881 23.6224 117.67 24.0242C117.46 24.4262 117.151 24.7654 116.774 25.0091C115.81 25.6412 114.68 25.9583 113.535 25.9183Z" fill="#8C96A2"/>
<path id="Vector_8" d="M131.615 25.2622C131.622 25.3089 131.62 25.3568 131.61 25.4028C131.599 25.4488 131.578 25.4921 131.551 25.5302C131.523 25.5682 131.488 25.6003 131.449 25.6244C131.409 25.6485 131.365 25.6642 131.319 25.6706C130.847 25.8278 130.356 25.9121 129.861 25.921C129.37 25.9729 128.874 25.8947 128.423 25.6937C127.971 25.4929 127.577 25.1764 127.28 24.7746C126.369 25.5748 125.19 25.9855 123.99 25.921C123.431 25.9473 122.875 25.8541 122.355 25.6476C121.836 25.441 121.363 25.1257 120.97 24.7219C120.579 24.2986 120.276 23.7993 120.078 23.2536C119.881 22.7079 119.794 22.1271 119.822 21.546V16.3936C119.822 16.1432 119.937 16.0114 120.182 16.0114H122.351C122.595 16.0114 122.712 16.1432 122.712 16.3936V21.1507C122.688 21.7434 122.887 22.323 123.267 22.7716C123.456 22.9771 123.687 23.1387 123.943 23.2455C124.199 23.3523 124.474 23.4019 124.75 23.391C125.033 23.4036 125.316 23.3588 125.581 23.2594C125.847 23.1598 126.092 23.0075 126.299 22.8111C126.495 22.6042 126.649 22.3582 126.749 22.0885C126.848 21.8188 126.893 21.531 126.88 21.243V16.3936C126.88 16.1432 126.995 16.0114 127.241 16.0114H129.435C129.68 16.0114 129.795 16.1432 129.795 16.3936V22.6003C129.795 23.1142 130.015 23.3646 130.442 23.3646C130.641 23.3725 130.841 23.3503 131.035 23.2987C131.084 23.2847 131.135 23.2823 131.185 23.2914C131.235 23.3005 131.282 23.321 131.323 23.3515C131.364 23.3819 131.397 23.4214 131.421 23.4671C131.446 23.5127 131.459 23.5632 131.461 23.615L131.615 25.2622Z" fill="#8C96A2"/>
<path id="Vector_9" d="M152.119 25.2605C152.13 25.3077 152.131 25.357 152.122 25.4046C152.113 25.4523 152.093 25.4973 152.065 25.5364C152.036 25.5754 152 25.6076 151.958 25.6305C151.917 25.6535 151.87 25.6666 151.823 25.6691C151.343 25.8283 150.842 25.9128 150.338 25.9194C149.571 25.9598 148.813 25.7373 148.183 25.2869C147.911 25.094 147.69 24.8355 147.539 24.5344C147.389 24.2333 147.313 23.8988 147.319 23.5607V20.4639C147.346 19.873 147.152 19.2936 146.776 18.8431C146.595 18.6371 146.372 18.4747 146.122 18.3676C145.873 18.2605 145.603 18.2114 145.332 18.2237C145.087 18.2142 144.844 18.2616 144.621 18.362C144.397 18.4624 144.199 18.6135 144.042 18.8036C143.7 19.2451 143.526 19.7969 143.551 20.3585V25.2211C143.551 25.4714 143.434 25.6032 143.19 25.6032H141.008C140.958 25.6096 140.907 25.6041 140.858 25.5872C140.81 25.5703 140.766 25.5422 140.73 25.5055C140.694 25.4686 140.667 25.4238 140.65 25.3745C140.633 25.3252 140.628 25.2727 140.634 25.2211V20.4639C140.663 19.8795 140.484 19.3041 140.131 18.8431C139.974 18.6494 139.776 18.4934 139.553 18.3864C139.331 18.2794 139.087 18.2238 138.841 18.2237C138.577 18.2129 138.315 18.2589 138.07 18.3588C137.826 18.4588 137.605 18.6103 137.422 18.8036C137.053 19.231 136.863 19.7894 136.892 20.3585V25.2211C136.898 25.2727 136.893 25.3252 136.877 25.3745C136.86 25.4238 136.833 25.4686 136.796 25.5055C136.76 25.5422 136.716 25.5703 136.668 25.5872C136.62 25.6041 136.569 25.6096 136.518 25.6032H134.415C134.17 25.6032 134.053 25.4714 134.053 25.2211V19.0144C134.069 18.9087 134.059 18.8008 134.027 18.6994C133.994 18.598 133.938 18.5058 133.864 18.4303C133.791 18.3548 133.7 18.298 133.6 18.2643C133.501 18.2307 133.396 18.2214 133.293 18.2369H132.866C132.582 18.2369 132.44 18.1315 132.44 17.9206V16.3656C132.434 16.2694 132.459 16.1737 132.514 16.0947C132.568 16.0156 132.647 15.9577 132.738 15.9308C133.183 15.7651 133.656 15.6847 134.131 15.6935C134.587 15.654 135.044 15.7467 135.451 15.9613C135.857 16.1757 136.196 16.5032 136.428 16.9059C136.863 16.4845 137.379 16.1595 137.943 15.9509C138.507 15.7423 139.107 15.6547 139.706 15.6935C140.286 15.6647 140.867 15.776 141.398 16.0187C141.929 16.2613 142.398 16.6285 142.764 17.0904C143.191 16.6164 143.715 16.2453 144.3 16.0037C144.885 15.7621 145.515 15.6562 146.144 15.6935C146.708 15.6667 147.27 15.7594 147.797 15.9658C148.323 16.1722 148.802 16.4878 149.202 16.8928C149.595 17.3151 149.898 17.8143 150.096 18.3602C150.293 18.9062 150.38 19.4874 150.351 20.0685V22.6118C150.351 23.1126 150.57 23.363 150.983 23.363C151.184 23.3725 151.384 23.3503 151.577 23.2971C151.844 23.2971 151.985 23.4025 152.002 23.6134L152.119 25.2605Z" fill="#8C96A2"/>
<path id="Vector_10" d="M0.808902 14.2972C1.76091 10.3896 3.96573 6.9196 7.07229 4.43971C10.1788 1.95981 14.0086 0.61261 17.9516 0.61261C21.8947 0.61261 25.7244 1.95981 28.8309 4.43971C31.9375 6.9196 34.1424 10.3896 35.0944 14.2972H33.546C30.9338 14.2579 28.3752 15.0552 26.2294 16.577C26.1056 16.6685 25.9763 16.7521 25.8423 16.8273H25.6617C25.5277 16.7521 25.3983 16.6685 25.2745 16.577C23.1098 15.0904 20.5603 14.2965 17.9516 14.2965C15.3429 14.2965 12.7934 15.0904 10.6287 16.577C10.5048 16.6685 10.3756 16.7521 10.2416 16.8273H10.061C9.92695 16.7521 9.79767 16.6685 9.67383 16.577C7.5281 15.0552 4.96951 14.2579 2.35736 14.2972H0.808902ZM30.7587 22.5596C31.5535 21.9275 32.5387 21.5967 33.546 21.624H35.6234V17.394H33.546C31.7719 17.372 30.0385 17.9359 28.6038 19.0017C27.7963 19.6096 26.8196 19.9375 25.8165 19.9375C24.8135 19.9375 23.8367 19.6096 23.0293 19.0017C21.5581 17.9559 19.8086 17.3952 18.0161 17.3952C16.2237 17.3952 14.4742 17.9559 13.003 19.0017C12.1956 19.6096 11.2188 19.9375 10.2158 19.9375C9.2127 19.9375 8.23596 19.6096 7.42857 19.0017C5.97611 17.9223 4.21783 17.3577 2.42188 17.394H0.279846V21.624H2.35736C3.36451 21.5967 4.3497 21.9275 5.14459 22.5596C6.61305 23.6061 8.3606 24.1672 10.1513 24.1672C11.9419 24.1672 13.6895 23.6061 15.158 22.5596C15.9539 21.9293 16.9383 21.5989 17.9452 21.624C18.9526 21.5945 19.9386 21.9255 20.7324 22.5596C22.2035 23.6054 23.9531 24.166 25.7455 24.166C27.538 24.166 29.2875 23.6054 30.7587 22.5596ZM30.7587 30.1236C31.5535 29.4914 32.5387 29.1607 33.546 29.188H35.6234V24.958H33.546C31.7719 24.936 30.0385 25.4999 28.6038 26.5656C27.7963 27.1736 26.8196 27.5015 25.8165 27.5015C24.8135 27.5015 23.8367 27.1736 23.0293 26.5656C21.5581 25.5198 19.8086 24.9592 18.0161 24.9592C16.2237 24.9592 14.4742 25.5198 13.003 26.5656C12.1956 27.1736 11.2188 27.5015 10.2158 27.5015C9.2127 27.5015 8.23596 27.1736 7.42857 26.5656C5.97611 25.4863 4.21783 24.9217 2.42188 24.958H0.279846V29.188H2.35736C3.36451 29.1607 4.3497 29.4914 5.14459 30.1236C6.61305 31.1701 8.3606 31.7312 10.1513 31.7312C11.9419 31.7312 13.6895 31.1701 15.158 30.1236C15.9539 29.4933 16.9383 29.1629 17.9452 29.188C18.9526 29.1585 19.9386 29.4894 20.7324 30.1236C22.2035 31.1694 23.9531 31.73 25.7455 31.73C27.538 31.73 29.2875 31.1694 30.7587 30.1236Z" fill="#8C96A2"/>
</g>
</svg>
