<svg width="160" height="33" viewBox="0 0 160 33" fill="none" xmlns="http://www.w3.org/2000/svg">
<g id="Group 1597880465">
<g id="Group 1171274787">
<path id="Vector" d="M23.9423 14.1943C23.4965 14.6568 23.155 15.215 22.9422 15.8292C22.7295 16.4433 22.6509 17.0982 22.7116 17.7474L22.6905 17.7255C22.753 18.4895 22.6531 19.2584 22.3977 19.9785C22.1423 20.6987 21.7376 21.3526 21.2117 21.8948C20.6858 22.437 20.0515 22.8544 19.3531 23.1177C18.6546 23.381 17.9088 23.484 17.1678 23.4195L17.189 23.4414C16.3026 23.3563 15.4122 23.5551 14.6395 24.0109C13.8667 24.4666 13.249 25.157 12.8708 25.9879C12.4924 26.8188 12.3719 27.7498 12.5256 28.6539C12.6793 29.558 13.0997 30.3912 13.7294 31.04C14.3593 31.6887 15.1678 32.1214 16.0449 32.279C16.9219 32.4367 17.8248 32.3115 18.6303 31.9208C19.4359 31.53 20.1048 30.8925 20.5462 30.0954C20.9875 29.2982 21.1796 28.3801 21.0963 27.4662L21.1186 27.4881C21.0561 26.724 21.156 25.9551 21.4114 25.235C21.6668 24.5149 22.0716 23.8609 22.5975 23.3188C23.1234 22.7766 23.7576 22.3593 24.456 22.0959C25.1545 21.8326 25.9003 21.7295 26.6413 21.7941L26.6189 21.7722C27.343 21.8394 28.0719 21.717 28.7379 21.4163C29.4039 21.1157 29.9855 20.6467 30.4288 20.0526C30.8722 19.4585 31.1629 18.7587 31.2741 18.0179C31.3853 17.2772 31.3132 16.5194 31.0647 15.815C30.8163 15.1106 30.3994 14.4822 29.8526 13.9881C29.3058 13.4941 28.647 13.1503 27.9371 12.9887C27.2272 12.827 26.4891 12.8528 25.7914 13.0636C25.0937 13.2743 24.4589 13.6632 23.9459 14.1943H23.9423Z" fill="#8C96A2"/>
<path id="Vector_2" d="M15.2642 20.5823L15.2419 20.5605C15.8717 20.6259 16.5078 20.5462 17.1041 20.3271C17.7004 20.1081 18.242 19.7551 18.6898 19.2938C19.1376 18.8325 19.4803 18.2743 19.6932 17.6597C19.9061 17.0451 19.984 16.3893 19.921 15.7398L19.9433 15.7617C19.8808 14.9977 19.9807 14.2287 20.2361 13.5087C20.4915 12.7886 20.8963 12.1346 21.4222 11.5924C21.948 11.0502 22.5823 10.6329 23.2807 10.3695C23.9792 10.1062 24.725 10.0031 25.466 10.0677L25.4437 10.0458C26.3301 10.1316 27.2208 9.93341 27.994 9.47826C28.7672 9.02303 29.3854 8.33298 29.7643 7.5022C30.1431 6.67143 30.2642 5.74038 30.111 4.83604C29.9578 3.93171 29.5377 3.09813 28.9081 2.44898C28.2784 1.79984 27.47 1.36674 26.5929 1.20877C25.7157 1.0508 24.8127 1.17563 24.007 1.56625C23.2011 1.95688 22.5319 2.59427 22.0904 3.39149C21.6489 4.1887 21.4567 5.10694 21.5399 6.02095L21.5187 5.99789C21.5815 6.76198 21.4817 7.53099 21.2263 8.25119C20.971 8.97141 20.5662 9.62544 20.0403 10.1676C19.5145 10.7099 18.8801 11.1273 18.1815 11.3905C17.483 11.6538 16.7371 11.7566 15.996 11.6919L16.0172 11.715C15.3874 11.6496 14.7513 11.7292 14.155 11.9483C13.5587 12.1673 13.017 12.5203 12.5693 12.9817C12.1215 13.443 11.7787 14.0012 11.5658 14.6158C11.3529 15.2305 11.2751 15.8862 11.3381 16.5356L11.3169 16.5138C11.3793 17.2778 11.2792 18.0466 11.0237 18.7666C10.7682 19.4866 10.3635 20.1405 9.83764 20.6826C9.31183 21.2248 8.67763 21.6421 7.97928 21.9055C7.28093 22.1689 6.53526 22.2721 5.79426 22.2078L5.81544 22.2296C4.92893 22.1438 4.03834 22.342 3.26511 22.7972C2.49188 23.2525 1.87367 23.9425 1.49481 24.7732C1.11594 25.6041 0.994859 26.5351 1.14808 27.4395C1.3013 28.3437 1.72136 29.1773 2.35097 29.8265C2.98058 30.4757 3.78908 30.9087 4.66619 31.0667C5.54331 31.2246 6.44635 31.0999 7.25212 30.7092C8.05789 30.3186 8.72718 29.6812 9.16865 28.884C9.6102 28.0868 9.80241 27.1685 9.71917 26.2545L9.74154 26.2763C9.679 25.5123 9.77892 24.7434 10.0343 24.0233C10.2897 23.3032 10.6946 22.6493 11.2204 22.107C11.7463 21.5648 12.3805 21.1475 13.0789 20.8842C13.7774 20.6208 14.5232 20.5179 15.2642 20.5823Z" fill="#8C96A2"/>
<path id="Vector_3" d="M7.37677 18.1483C7.82271 17.6859 8.16412 17.1277 8.37666 16.5135C8.58918 15.8993 8.66758 15.2444 8.60626 14.5953L8.62861 14.6171C8.56601 13.8528 8.66597 13.0838 8.92149 12.3635C9.17708 11.6431 9.58209 10.9891 10.1082 10.4468C10.6343 9.90458 11.2689 9.48735 11.9676 9.22416C12.6664 8.96098 13.4124 8.85825 14.1536 8.92312L14.1313 8.90129C15.0174 8.98688 15.9077 8.78856 16.6805 8.33339C17.4535 7.8782 18.0714 7.18832 18.45 6.3578C18.8286 5.52729 18.9495 4.59658 18.7964 3.69258C18.6431 2.78858 18.2232 1.95532 17.5938 1.30641C16.9645 0.657508 16.1563 0.224549 15.2795 0.0665815C14.4027 -0.0913852 13.5 0.0333292 12.6945 0.423715C11.8889 0.814102 11.2198 1.45115 10.7783 2.24801C10.3368 3.04485 10.1445 3.96271 10.2275 4.8764L10.2063 4.85457C10.2689 5.61861 10.169 6.38752 9.91355 7.10763C9.65815 7.82774 9.25342 8.4817 8.72752 9.02388C8.20166 9.56606 7.56737 9.98339 6.86893 10.2467C6.17049 10.5101 5.42472 10.6131 4.68368 10.5486L4.70486 10.5704C3.98078 10.5035 3.25203 10.6261 2.58613 10.9268C1.92023 11.2275 1.33873 11.6967 0.895519 12.2909C0.452301 12.885 0.161713 13.5848 0.0506766 14.3255C-0.0603597 15.0663 0.011749 15.824 0.260322 16.5283C0.50889 17.2327 0.925888 17.861 1.47267 18.3549C2.01944 18.8489 2.67829 19.1926 3.38819 19.3542C4.09809 19.5157 4.83604 19.4899 5.53369 19.2791C6.23133 19.0683 6.86608 18.6793 7.37913 18.1483H7.37677Z" fill="#8C96A2"/>
<path id="Vector_4" d="M43.8224 6.04803H47.3168V23.5802H43.8224V6.04803Z" fill="#8C96A2"/>
<path id="Vector_5" d="M49.2961 17.5782C49.2912 16.3183 49.6491 15.0853 50.3245 14.0352C50.9998 12.9852 51.9622 12.1654 53.0898 11.6798C54.2174 11.1941 55.4594 11.0644 56.6586 11.3072C57.8577 11.5498 58.96 12.154 59.8258 13.0431C60.6916 13.9322 61.282 15.0663 61.5222 16.3016C61.7624 17.537 61.6416 18.8181 61.1751 19.9825C60.7086 21.1471 59.9174 22.1426 58.9016 22.8431C57.8859 23.5436 56.6914 23.9176 55.4694 23.9176C54.6582 23.9272 53.8533 23.7699 53.1018 23.455C52.3503 23.1401 51.6672 22.6739 51.0923 22.0836C50.5176 21.4935 50.0627 20.7911 49.7543 20.0174C49.4458 19.2438 49.2901 18.4146 49.2961 17.5782ZM58.1484 17.5782C58.1338 17.0352 57.9643 16.5086 57.661 16.0642C57.3578 15.62 56.9342 15.2778 56.4433 15.0803C55.9524 14.8828 55.4159 14.839 54.9009 14.9542C54.386 15.0694 53.9154 15.3386 53.548 15.7279C53.1806 16.1174 52.9327 16.6099 52.8352 17.1438C52.7378 17.6777 52.7953 18.2294 53.0003 18.7299C53.2053 19.2303 53.5489 19.6574 53.9881 19.9576C54.4272 20.2579 54.9425 20.4181 55.4694 20.418C55.8303 20.4279 56.1892 20.3607 56.5236 20.2204C56.858 20.0802 57.1606 19.87 57.4123 19.6032C57.664 19.3364 57.8593 19.0188 57.9861 18.6702C58.1128 18.3217 58.1681 17.9499 58.1484 17.5782Z" fill="#8C96A2"/>
<path id="Vector_6" d="M75.5684 11.5724V22.9751C75.5684 27.0097 72.5165 28.7152 69.4186 28.7152C68.3279 28.7994 67.2358 28.5723 66.262 28.0587C65.2883 27.5451 64.4704 26.7651 63.8983 25.8039L66.8796 24.0268C67.1201 24.5278 67.5033 24.9412 67.9778 25.2114C68.4524 25.4818 68.9957 25.5962 69.5351 25.5395C69.8799 25.5887 70.2309 25.5574 70.5623 25.4479C70.8936 25.3384 71.197 25.1534 71.4497 24.9067C71.7024 24.66 71.8981 24.3579 72.0223 24.0227C72.1464 23.6876 72.1959 23.3278 72.167 22.9702V21.8725C71.7578 22.3886 71.237 22.7988 70.6463 23.0699C70.0557 23.341 69.4115 23.4656 68.7657 23.4336C67.2289 23.3837 65.7712 22.7191 64.7013 21.5806C63.6313 20.4422 63.0331 18.9191 63.0331 17.3339C63.0331 15.7486 63.6313 14.2255 64.7013 13.087C65.7712 11.9486 67.2289 11.284 68.7657 11.234C69.4115 11.2021 70.0557 11.3267 70.6463 11.5978C71.237 11.8689 71.7578 12.2791 72.167 12.7952V11.57L75.5684 11.5724ZM72.1682 17.3357C72.1917 16.7551 72.0461 16.1805 71.7502 15.6859C71.4542 15.1913 71.0215 14.7993 70.5077 14.5604C69.994 14.3216 69.4226 14.2467 68.8671 14.3454C68.3117 14.4441 67.7977 14.712 67.3911 15.1145C66.9846 15.5171 66.7042 16.0358 66.586 16.604C66.4679 17.1722 66.5173 17.7638 66.728 18.3029C66.9388 18.8418 67.3011 19.3034 67.7685 19.6283C68.2359 19.9531 68.7868 20.1264 69.3504 20.1257C69.7175 20.152 70.086 20.0989 70.432 19.9696C70.778 19.8403 71.0939 19.6377 71.3593 19.3749C71.6248 19.1121 71.8339 18.7948 71.9732 18.4435C72.1125 18.0924 72.179 17.715 72.1682 17.3357Z" fill="#8C96A2"/>
<path id="Vector_7" d="M77.5479 17.5782C77.543 16.3183 77.9009 15.0853 78.5763 14.0352C79.2516 12.9852 80.2141 12.1654 81.3417 11.6798C82.4693 11.1941 83.7112 11.0644 84.9103 11.3072C86.1095 11.5498 87.2118 12.154 88.0776 13.0431C88.9435 13.9322 89.5339 15.0663 89.7741 16.3016C90.0143 17.537 89.8935 18.8181 89.427 19.9825C88.9604 21.1471 88.1692 22.1426 87.1535 22.8431C86.1378 23.5436 84.9432 23.9176 83.7212 23.9176C82.9101 23.9272 82.1052 23.7699 81.3537 23.455C80.6021 23.1401 79.919 22.6739 79.3442 22.0836C78.7695 21.4935 78.3146 20.7911 78.0061 20.0174C77.6977 19.2438 77.5419 18.4146 77.5479 17.5782ZM86.4002 17.5782C86.3856 17.0352 86.2161 16.5086 85.9128 16.0642C85.6096 15.62 85.1861 15.2778 84.6951 15.0803C84.2042 14.8828 83.6677 14.839 83.1528 14.9542C82.6378 15.0694 82.1673 15.3386 81.7998 15.7279C81.4325 16.1174 81.1845 16.6099 81.0871 17.1438C80.9897 17.6777 81.0471 18.2294 81.2521 18.7299C81.4572 19.2303 81.8007 19.6574 82.2399 19.9576C82.6791 20.2579 83.1943 20.4181 83.7212 20.418C84.0821 20.4279 84.4411 20.3607 84.7754 20.2204C85.1099 20.0802 85.4125 19.87 85.6641 19.6032C85.9158 19.3364 86.1112 19.0188 86.2379 18.6702C86.3645 18.3217 86.4198 17.9499 86.4002 17.5782Z" fill="#8C96A2"/>
<path id="Vector_8" d="M91.5257 8.35415C91.5257 7.92662 91.6486 7.50869 91.8791 7.15321C92.1094 6.79773 92.4368 6.52066 92.8202 6.35705C93.2033 6.19344 93.6247 6.15063 94.0311 6.23404C94.4384 6.31745 94.8113 6.52333 95.1049 6.82564C95.3976 7.12795 95.598 7.51312 95.6781 7.93244C95.7592 8.35175 95.7182 8.78639 95.5588 9.18137C95.4004 9.5764 95.1319 9.91396 94.787 10.1515C94.4421 10.389 94.0367 10.5158 93.6219 10.5158C93.0682 10.5101 92.5379 10.2805 92.1458 9.87642C91.7539 9.47221 91.5312 8.92569 91.5257 8.35415ZM91.8787 11.5724H95.3743V23.5815H91.8739L91.8787 11.5724Z" fill="#8C96A2"/>
<path id="Vector_9" d="M110.46 17.5764C110.5 18.3701 110.388 19.1641 110.13 19.9129C109.872 20.6618 109.472 21.3506 108.954 21.9397C108.437 22.5288 107.811 23.0067 107.115 23.3458C106.418 23.685 105.662 23.8786 104.892 23.9157C104.245 23.9521 103.597 23.8396 102.997 23.5861C102.398 23.3326 101.859 22.9447 101.423 22.4504V28.3834H97.9281V11.5718H101.423V12.6999C101.86 12.206 102.398 11.8183 102.998 11.5651C103.597 11.3118 104.245 11.1994 104.892 11.2358C105.662 11.2728 106.418 11.4664 107.115 11.8055C107.812 12.1447 108.438 12.6226 108.955 13.212C109.473 13.8013 109.872 14.4903 110.131 15.2392C110.389 15.9883 110.501 16.7825 110.46 17.5764ZM106.965 17.5764C106.952 17.0144 106.778 16.4689 106.465 16.0084C106.152 15.548 105.714 15.1928 105.207 14.9875C104.699 14.7821 104.144 14.7357 103.611 14.854C103.078 14.9723 102.591 15.2502 102.209 15.6526C101.829 16.0551 101.572 16.5645 101.47 17.1169C101.37 17.6694 101.428 18.2403 101.64 18.7584C101.852 19.2764 102.208 19.7185 102.661 20.0293C103.116 20.3402 103.65 20.5059 104.195 20.5059C104.569 20.5231 104.942 20.4585 105.291 20.3163C105.64 20.1741 105.955 19.9577 106.217 19.6811C106.479 19.4045 106.68 19.074 106.809 18.7113C106.938 18.3485 106.991 17.9618 106.965 17.5764Z" fill="#8C96A2"/>
<path id="Vector_10" d="M121.242 19.9799C121.242 22.7419 118.913 23.9187 116.398 23.9187C115.382 24.0136 114.362 23.792 113.469 23.2824C112.576 22.773 111.851 21.999 111.39 21.0607L114.417 19.2836C114.54 19.7173 114.803 20.0946 115.162 20.3525C115.522 20.6103 115.957 20.7331 116.394 20.7004C117.232 20.7004 117.651 20.436 117.651 19.9568C117.651 18.6346 111.92 19.3322 111.92 15.1774C111.92 12.5584 114.064 11.2386 116.487 11.2386C117.398 11.209 118.299 11.4317 119.098 11.8836C119.897 12.3355 120.563 13 121.028 13.8079L118.046 15.4649C117.916 15.1503 117.698 14.8825 117.421 14.6946C117.143 14.5067 116.819 14.4071 116.487 14.4084C115.881 14.4084 115.507 14.6509 115.507 15.0804C115.512 16.4499 121.242 15.5365 121.242 19.9799Z" fill="#8C96A2"/>
<path id="Vector_11" d="M134.01 11.5732V23.5823H130.515V22.453C130.112 22.9513 129.601 23.3439 129.022 23.5987C128.443 23.8534 127.814 23.9629 127.186 23.9183C124.833 23.9183 122.832 22.1897 122.832 18.9448V11.5732H126.327V18.4172C126.298 18.7032 126.329 18.9923 126.419 19.2645C126.51 19.5366 126.656 19.7853 126.849 19.9931C127.042 20.2009 127.276 20.363 127.536 20.4678C127.796 20.5728 128.075 20.6181 128.353 20.6007C129.634 20.6007 130.519 19.8328 130.519 18.1273V11.5768L134.01 11.5732Z" fill="#8C96A2"/>
<path id="Vector_12" d="M154.044 16.2099V23.5828H150.549V16.5217C150.549 15.3207 149.99 14.5529 148.873 14.5529C147.708 14.5529 147.055 15.3935 147.055 16.8104V23.5828H143.562V16.5217C143.562 15.3207 143.003 14.5529 141.884 14.5529C140.719 14.5529 140.068 15.3935 140.068 16.8104V23.5828H136.573V11.5737H140.068V12.6775C140.43 12.1878 140.906 11.7995 141.451 11.5479C141.996 11.2964 142.594 11.1898 143.189 11.2376C143.787 11.2075 144.382 11.3376 144.917 11.6152C145.452 11.8928 145.907 12.3086 146.24 12.8219C146.627 12.2849 147.14 11.8579 147.731 11.5808C148.322 11.3038 148.97 11.1857 149.617 11.2376C152.292 11.2389 154.044 13.2076 154.044 16.2099Z" fill="#8C96A2"/>
<path id="Vector_13" d="M157.001 11.4983C158.433 11.4983 159.594 10.3014 159.594 8.82479C159.594 7.34823 158.433 6.15125 157.001 6.15125C155.569 6.15125 154.408 7.34823 154.408 8.82479C154.408 10.3014 155.569 11.4983 157.001 11.4983Z" fill="#8C96A2"/>
</g>
</g>
</svg>
