<svg width="135" height="33" viewBox="0 0 135 33" fill="none" xmlns="http://www.w3.org/2000/svg">
<g id="Group 1597880469">
<path id="Vector" d="M38.978 9.94227H42.3753V24.0519H38.978V9.94227ZM43.73 18.7445C43.73 15.2496 45.8466 13.1549 49.0216 13.1549C52.1967 13.1549 54.3133 15.2496 54.3133 18.7445C54.3133 22.2393 52.2707 24.3558 49.0216 24.3558C45.7726 24.3558 43.73 22.3153 43.73 18.7445ZM50.9478 18.7445C50.9478 16.8234 50.2176 15.6947 49.0534 15.6947C47.8892 15.6947 47.1695 16.78 47.1695 18.7445C47.1695 20.7089 47.8892 21.7835 49.0534 21.7835C50.2176 21.7835 50.9689 20.709 50.9689 18.7553L50.9478 18.7445ZM55.668 24.7791H58.9488C59.0982 25.1413 59.3591 25.4435 59.6916 25.6394C60.024 25.8354 60.41 25.9144 60.7904 25.8644C62.0922 25.8644 62.7694 25.1481 62.7694 24.0845V22.1308H62.78C62.4997 22.7392 62.0464 23.2462 61.4796 23.5852C60.9129 23.9242 60.2594 24.0793 59.605 24.0301C57.1179 24.0301 55.4669 22.0874 55.4669 18.7445C55.4669 15.4016 57.0439 13.3177 59.7003 13.3177C60.3714 13.2809 61.0371 13.4584 61.6058 13.8258C62.1744 14.1932 62.6179 14.7324 62.8753 15.369H62.78V13.4046H66.1456V23.9759C66.1456 26.5265 63.9442 28.122 60.7057 28.122C57.7635 28.1111 55.8797 26.7327 55.6892 24.79L55.668 24.7791ZM62.78 18.7445C62.78 17.0405 62.0181 15.9659 60.8115 15.9659C59.605 15.9659 58.8642 17.0514 58.8642 18.7445C58.8642 20.4377 59.5945 21.4362 60.8115 21.4362C62.0287 21.4362 62.78 20.5136 62.78 18.7445ZM67.4897 18.7445C67.4897 15.2496 69.6063 13.1549 72.7813 13.1549C75.9564 13.1549 78.0731 15.2496 78.0731 18.7445C78.0731 22.2393 76.0199 24.3558 72.7813 24.3558C69.5429 24.3558 67.5108 22.3153 67.5108 18.7445H67.4897ZM74.7076 18.7445C74.7076 16.8234 73.9667 15.6947 72.8131 15.6947C71.6595 15.6947 70.9293 16.78 70.9293 18.7445C70.9293 20.7089 71.6489 21.7835 72.8131 21.7835C73.9773 21.7835 74.7288 20.709 74.7288 18.7553L74.7076 18.7445ZM79.4489 10.8322C79.4342 10.4774 79.5232 10.1261 79.7047 9.82351C79.8863 9.52097 80.1519 9.28106 80.4674 9.13463C80.783 8.9882 81.134 8.94194 81.4755 9.00174C81.8169 9.06163 82.1331 9.22486 82.3833 9.47051C82.6335 9.71616 82.8063 10.0329 82.8795 10.3801C82.9527 10.7273 82.9229 11.089 82.794 11.4187C82.6651 11.7484 82.4429 12.031 82.1561 12.2302C81.8693 12.4294 81.5309 12.5359 81.1846 12.5363C80.9632 12.542 80.743 12.5027 80.5366 12.4204C80.3301 12.3382 80.1417 12.2147 79.9823 12.0572C79.8227 11.8997 79.6953 11.7113 79.6074 11.5029C79.5195 11.2944 79.4728 11.0702 79.4701 10.8431L79.4489 10.8322ZM79.4489 13.3937H82.8886V24.0953H79.5018L79.4489 13.3937ZM95.2604 18.7445C95.2604 22.2285 93.7366 24.2473 91.1437 24.2473C90.4798 24.2892 89.8193 24.1213 89.2513 23.7661C88.6833 23.4109 88.2363 22.8856 87.9686 22.2611H87.9052V27.5359H84.5075V13.4263H87.8835V15.3364H87.9477C88.2055 14.6997 88.6492 14.16 89.2171 13.7909C89.7851 13.4219 90.4506 13.2415 91.122 13.2743C93.7892 13.2526 95.3237 15.2605 95.3237 18.7553L95.2604 18.7445ZM91.8 18.7445C91.8 17.0514 91.0269 15.9552 89.8309 15.9552C88.635 15.9552 87.8835 17.0405 87.8735 18.7445C87.8627 20.4485 88.635 21.523 89.8309 21.523C91.0269 21.523 91.8634 20.5136 91.8634 18.7553L91.8 18.7445ZM101.06 13.144C103.907 13.144 105.675 14.5225 105.696 16.7366H102.595C102.595 15.9659 101.971 15.4884 101.039 15.4884C100.108 15.4884 99.6631 15.8575 99.6631 16.411C99.6631 16.9645 100.055 17.1382 100.838 17.301L103.018 17.7568C105.135 18.2127 105.982 19.081 105.982 20.6981C105.982 22.8688 104.023 24.3449 101.113 24.3449C98.2028 24.3449 96.3079 22.9122 96.1711 20.7307H99.4621C99.5572 21.523 100.171 21.9897 101.166 21.9897C102.161 21.9897 102.626 21.6641 102.626 21.0889C102.626 20.5136 102.309 20.4159 101.494 20.2423L99.5255 19.819C97.483 19.374 96.4138 18.2778 96.4138 16.6389C96.478 14.5116 98.2553 13.1549 101.123 13.1549L101.06 13.144ZM117.358 24.0845H114.067V22.0765H114.004C113.82 22.7463 113.418 23.3317 112.866 23.7361C112.314 24.1406 111.644 24.34 110.966 24.3015C110.454 24.3186 109.946 24.2245 109.472 24.0256C108.998 23.8266 108.571 23.5271 108.218 23.1468C107.866 22.7666 107.595 22.3142 107.425 21.8192C107.254 21.3242 107.188 20.798 107.23 20.2749V13.4046H110.628V19.5259C110.628 20.7849 111.273 21.4688 112.332 21.4688C112.58 21.4668 112.825 21.4103 113.05 21.303C113.275 21.1956 113.475 21.04 113.637 20.8466C113.798 20.6532 113.917 20.4265 113.986 20.1818C114.055 19.9371 114.071 19.6802 114.036 19.4283V13.4046H117.423L117.358 24.0845ZM118.999 13.3937H122.302V15.4559H122.375C122.558 14.7953 122.949 14.2153 123.487 13.8069C124.025 13.3983 124.68 13.1844 125.349 13.1983C126.021 13.1385 126.691 13.3377 127.227 13.7572C127.763 14.1767 128.128 14.7863 128.249 15.4667H128.397C128.608 14.7827 129.034 14.1894 129.609 13.7792C130.183 13.3689 130.873 13.1648 131.572 13.1983C132.037 13.1802 132.5 13.2629 132.931 13.441C133.362 13.619 133.752 13.8885 134.074 14.2318C134.397 14.575 134.646 14.9842 134.803 15.4328C134.962 15.8812 135.025 16.3588 134.991 16.8342V24.0953H131.572V17.7242C131.572 16.6389 131.074 16.0311 130.112 16.0311C129.898 16.0275 129.686 16.0713 129.491 16.1596C129.296 16.2478 129.12 16.3783 128.979 16.5422C128.837 16.7062 128.732 16.8995 128.669 17.1092C128.607 17.3189 128.591 17.5397 128.619 17.7568V24.0953H125.381V17.6917C125.381 16.6063 124.862 16.0311 123.931 16.0311C123.715 16.0294 123.502 16.0749 123.304 16.1649C123.107 16.2548 122.93 16.3869 122.788 16.5524C122.644 16.718 122.537 16.913 122.473 17.1245C122.409 17.3359 122.391 17.5589 122.417 17.7785V24.0953H119.021L118.999 13.3937Z" fill="#8C96A2"/>
<path id="Vector_2" d="M32.2562 10.8654C32.2563 8.70522 31.6202 6.59538 30.4312 4.81221C29.2422 3.02903 27.5559 1.65569 25.5929 0.87205C23.63 0.088418 21.482 -0.0689603 19.4304 0.420526C17.3788 0.910015 15.5192 2.02354 14.095 3.61526H0.886963V32.2035H28.7742V18.8428C29.8687 17.8388 30.7446 16.6094 31.3446 15.2349C31.9445 13.8603 32.2552 12.3715 32.2562 10.8654ZM26.8904 10.8654C26.8925 11.9006 26.5951 12.9131 26.0358 13.7748C25.4766 14.6365 24.6806 15.3087 23.7487 15.7064C22.8168 16.104 21.7907 16.2091 20.8005 16.0085C19.8102 15.8079 18.9003 15.3105 18.1858 14.5793C17.4713 13.8481 16.9844 12.916 16.7868 11.9009C16.5891 10.8858 16.6895 9.83339 17.0753 8.87684C17.4611 7.92028 18.1149 7.1026 18.954 6.52728C19.7931 5.95197 20.7798 5.64488 21.7892 5.64487C23.1403 5.64487 24.4362 6.19454 25.3925 7.17328C26.3489 8.15201 26.8876 9.47987 26.8904 10.8654ZM23.4084 26.7008H6.25275V9.11804H11.481C11.38 9.69485 11.3268 10.2794 11.3222 10.8654C11.325 13.7114 12.4287 16.4401 14.391 18.4525C16.3533 20.4649 19.014 21.5967 21.7892 21.5996C22.3317 21.5966 22.8731 21.5495 23.4084 21.4585V26.7008Z" fill="#8C96A2"/>
</g>
</svg>
