<svg width="135" height="32" viewBox="0 0 135 32" fill="none" xmlns="http://www.w3.org/2000/svg">
<g id="Group 1597880466">
<path id="Vector" d="M32.6 7.89783H35.6936V23.3246H32.6V7.89783Z" fill="#8C96A2"/>
<path id="Vector_2" d="M37.4273 18.0403C37.4273 16.9304 37.7456 15.8455 38.3418 14.9231C38.9381 14.0008 39.7854 13.2824 40.7765 12.8591C41.7675 12.4358 42.8577 12.3267 43.9087 12.5456C44.9597 12.7645 45.9243 13.3015 46.6802 14.0886C47.4361 14.8756 47.9493 15.8773 48.1546 16.9666C48.36 18.056 48.2484 19.1839 47.8339 20.2075C47.4193 21.2311 46.7206 22.1042 45.8263 22.7162C44.9319 23.3283 43.8822 23.6516 42.8101 23.6453C42.0991 23.651 41.3941 23.5097 40.7365 23.2297C40.0789 22.9497 39.4818 22.5365 38.9805 22.0145C38.4791 21.4924 38.0835 20.872 37.8168 20.1896C37.5501 19.5072 37.4176 18.7764 37.4273 18.0403ZM45.1819 18.0403C45.1697 17.5619 45.0216 17.0977 44.756 16.7059C44.4903 16.3141 44.119 16.0122 43.6885 15.8377C43.2579 15.6633 42.7873 15.6241 42.3353 15.7251C41.8834 15.8262 41.4703 16.0629 41.1476 16.4057C40.825 16.7486 40.6071 17.1823 40.5213 17.6526C40.4355 18.1229 40.4855 18.609 40.6651 19.0501C40.8448 19.4911 41.146 19.8676 41.5312 20.1323C41.9164 20.3971 42.3684 20.5384 42.8308 20.5385C43.1456 20.5449 43.4582 20.4839 43.7492 20.3595C44.0402 20.2351 44.3033 20.0499 44.5221 19.8154C44.7408 19.581 44.9104 19.3023 45.0204 18.9969C45.1304 18.6914 45.1784 18.3658 45.1613 18.0403H45.1819Z" fill="#8C96A2"/>
<path id="Vector_3" d="M60.4329 12.7538V22.7998C60.4329 26.3442 57.7517 27.8496 55.0397 27.8496C54.083 27.9309 53.1236 27.7341 52.2691 27.2814C51.4146 26.8287 50.6993 26.1381 50.2033 25.2873L52.8123 23.7287C53.0237 24.17 53.36 24.534 53.7764 24.7725C54.1927 25.0109 54.6693 25.1123 55.1428 25.0632C55.4444 25.1016 55.7505 25.0706 56.0391 24.9723C56.3278 24.8741 56.5919 24.711 56.8127 24.4947C57.0334 24.2785 57.2051 24.0144 57.3158 23.7214C57.4264 23.4284 57.4732 23.1137 57.4527 22.7998V21.8283C57.0927 22.2802 56.6359 22.639 56.1186 22.8762C55.6013 23.1134 55.0376 23.2225 54.4725 23.1949C53.105 23.1949 51.7936 22.6324 50.8267 21.6314C49.8597 20.6303 49.3165 19.2726 49.3165 17.8569C49.3165 16.4411 49.8597 15.0834 50.8267 14.0823C51.7936 13.0813 53.105 12.5188 54.4725 12.5188C55.0376 12.4912 55.6013 12.6003 56.1186 12.8375C56.6359 13.0747 57.0927 13.4335 57.4527 13.8854V12.8178L60.4329 12.7538ZM57.4527 17.8248C57.4732 17.314 57.3458 16.8086 57.0867 16.3734C56.8275 15.9383 56.4486 15.5933 55.9986 15.3829C55.5485 15.1725 55.048 15.1063 54.5613 15.1928C54.0747 15.2793 53.6241 15.5144 53.2676 15.8682C52.9111 16.2219 52.6649 16.6779 52.5607 17.1776C52.4566 17.6774 52.4992 18.1979 52.6831 18.6723C52.867 19.1468 53.1838 19.5534 53.5927 19.84C54.0016 20.1265 54.484 20.2798 54.9778 20.2803C55.3 20.3043 55.6235 20.2581 55.9274 20.1447C56.2313 20.0312 56.5088 19.8531 56.742 19.6216C56.9753 19.3902 57.159 19.1108 57.2815 18.8012C57.4038 18.4918 57.4622 18.1592 57.4527 17.8248Z" fill="#8C96A2"/>
<path id="Vector_4" d="M62.1767 18.0404C62.1767 16.9314 62.4944 15.8474 63.0898 14.9254C63.6851 14.0034 64.5313 13.285 65.5211 12.8612C66.5109 12.4373 67.6 12.3269 68.6505 12.544C69.7009 12.7612 70.6656 13.2961 71.4223 14.081C72.179 14.8659 72.6938 15.8656 72.9015 16.9535C73.1093 18.0415 73.0006 19.1687 72.5892 20.1927C72.1779 21.2167 71.4824 22.0913 70.5907 22.7059C69.6991 23.3205 68.6514 23.6474 67.5802 23.6453C66.8677 23.6524 66.1612 23.5123 65.5018 23.233C64.8424 22.9537 64.2435 22.541 63.7403 22.019C63.2369 21.4969 62.8394 20.8761 62.5709 20.1929C62.3024 19.5098 62.1684 18.7779 62.1767 18.0404ZM69.9314 18.0404C69.9192 17.5615 69.7707 17.0969 69.5046 16.7049C69.2385 16.313 68.8666 16.0109 68.4355 15.8368C68.0043 15.6627 67.5331 15.6242 67.081 15.7261C66.6288 15.828 66.2157 16.0658 65.8934 16.4096C65.5712 16.7535 65.3541 17.1882 65.2696 17.6592C65.1849 18.1302 65.2364 18.6167 65.4175 19.0576C65.5987 19.4984 65.9016 19.8742 66.2881 20.1376C66.6747 20.401 67.1277 20.5405 67.5905 20.5386C67.9053 20.545 68.2179 20.484 68.5089 20.3596C68.7999 20.2351 69.0631 20.05 69.2817 19.8155C69.5005 19.581 69.6702 19.3024 69.7801 18.997C69.8901 18.6915 69.9381 18.3659 69.921 18.0404H69.9314Z" fill="#8C96A2"/>
<path id="Vector_5" d="M74.4169 9.92531C74.4169 9.54946 74.5246 9.18213 74.7263 8.86956C74.928 8.55708 75.2147 8.31347 75.5501 8.16968C75.8854 8.02585 76.2545 7.98821 76.6105 8.06154C76.9666 8.13486 77.2937 8.31589 77.5504 8.58162C77.8071 8.84736 77.9819 9.18597 78.0528 9.55464C78.1236 9.92322 78.0872 10.3053 77.9483 10.6525C77.8093 10.9998 77.5741 11.2966 77.2723 11.5054C76.9704 11.7142 76.6155 11.8257 76.2525 11.8257C75.7674 11.8202 75.3036 11.6181 74.9605 11.2629C74.6174 10.9078 74.4223 10.4276 74.4169 9.92531ZM74.716 12.7545H77.8096V23.3237H74.716V12.7545Z" fill="#8C96A2"/>
<path id="Vector_6" d="M91.0516 18.0387C91.0865 18.7417 90.9866 19.4448 90.7574 20.1075C90.5291 20.7703 90.1756 21.3797 89.7181 21.9006C89.2614 22.4215 88.7088 22.8437 88.0936 23.1428C87.4785 23.442 86.8121 23.6122 86.1328 23.6436C85.5566 23.6834 84.9788 23.5878 84.4433 23.3641C83.9078 23.1404 83.4275 22.7944 83.0391 22.3519V27.5724H79.9455V12.7541H83.0391V13.747C83.4283 13.3058 83.9086 12.9613 84.4441 12.7394C84.9796 12.5176 85.5574 12.4241 86.1328 12.4659C86.8089 12.4974 87.4728 12.6666 88.0863 12.9638C88.6998 13.2609 89.25 13.6802 89.7067 14.1977C90.1634 14.7151 90.5177 15.3207 90.7485 15.9797C90.9793 16.6388 91.0816 17.3385 91.0516 18.0387ZM87.9579 18.0387C87.9457 17.5429 87.7921 17.0618 87.5175 16.6558C87.242 16.2497 86.8576 15.9368 86.4115 15.7562C85.9645 15.5757 85.477 15.5354 85.0089 15.6406C84.5408 15.7458 84.1126 15.9918 83.7794 16.3476C83.4454 16.7035 83.2203 17.1534 83.1325 17.6409C83.0448 18.1286 83.0976 18.6321 83.2853 19.0886C83.473 19.545 83.7859 19.9341 84.1865 20.207C84.5863 20.4798 85.0552 20.6242 85.5347 20.6223C85.863 20.6368 86.1904 20.5792 86.4952 20.4534C86.8007 20.3277 87.0762 20.1365 87.3054 19.8926C87.5345 19.6486 87.7109 19.3574 87.823 19.0379C87.9352 18.7185 87.9815 18.3779 87.9579 18.0387Z" fill="#8C96A2"/>
<path id="Vector_7" d="M100.463 20.1509C100.463 22.5851 98.4004 23.6206 96.2145 23.6206C95.323 23.7037 94.4275 23.508 93.6441 23.0589C92.8616 22.6097 92.2261 21.9278 91.8214 21.1011L94.482 19.5424C94.5876 19.9233 94.8159 20.2553 95.1296 20.4826C95.4433 20.71 95.822 20.819 96.2039 20.7915C96.9361 20.7915 97.3075 20.5566 97.3075 20.1295C97.3075 18.9659 92.2854 19.5851 92.2854 15.9232C92.2854 13.6172 94.1626 12.4642 96.2868 12.4642C97.0946 12.4268 97.8966 12.6164 98.6085 13.0131C99.3195 13.4097 99.9144 13.9984 100.329 14.7169L97.6683 16.1688C97.5512 15.8934 97.3587 15.6591 97.1157 15.4942C96.8719 15.3294 96.5875 15.2411 96.2974 15.24C95.761 15.24 95.4409 15.4535 95.4409 15.8272C95.4409 17.0442 100.463 16.2435 100.463 20.1509Z" fill="#8C96A2"/>
<path id="Vector_8" d="M111.674 12.7554V23.3247H108.581V22.3318C108.229 22.7713 107.783 23.1191 107.277 23.3472C106.773 23.5753 106.222 23.6773 105.672 23.6449C103.61 23.6449 101.846 22.1183 101.846 19.2678V12.7554H104.94V18.7874C104.916 19.0396 104.945 19.2942 105.025 19.5337C105.105 19.7732 105.234 19.9919 105.403 20.1746C105.573 20.3573 105.78 20.4997 106.007 20.592C106.236 20.6843 106.48 20.7242 106.724 20.709C107.838 20.709 108.621 20.0258 108.621 18.5739V12.7554H111.674Z" fill="#8C96A2"/>
<path id="Vector_9" d="M129.201 16.8335V23.3246H126.108V17.1111C126.108 16.0435 125.622 15.3817 124.643 15.3817C123.663 15.3817 123.045 16.1182 123.045 17.3673V23.3246H119.951V17.1111C119.951 16.0435 119.467 15.3817 118.487 15.3817C117.508 15.3817 116.888 16.1182 116.888 17.3673V23.3246H113.795V12.7553H116.888V13.7268C117.208 13.2976 117.627 12.9578 118.106 12.7378C118.585 12.5179 119.109 12.4248 119.632 12.467C120.154 12.4388 120.676 12.5519 121.144 12.7952C121.612 13.0386 122.012 13.4037 122.302 13.855C122.642 13.3835 123.092 13.009 123.61 12.7662C124.127 12.5236 124.695 12.4206 125.262 12.467C127.675 12.467 129.201 14.1966 129.201 16.8335Z" fill="#8C96A2"/>
<path id="Vector_10" d="M14.1722 5.12097V0.583679H0.354065V31.7575H14.1722V27.2202C11.3416 27.2202 8.62683 26.0561 6.62527 23.9839C4.62371 21.9117 3.49923 19.1012 3.49923 16.1706C3.49923 13.24 4.62371 10.4295 6.62527 8.35735C8.62683 6.28512 11.3416 5.12097 14.1722 5.12097Z" fill="#8C96A2"/>
<path id="Vector_11" d="M14.1738 5.12146V27.2207C17.0044 27.2207 19.7191 26.0566 21.7207 23.9844C23.7223 21.9122 24.8467 19.1017 24.8467 16.1711C24.8467 13.2405 23.7223 10.43 21.7207 8.35785C19.7191 6.28561 17.0044 5.12146 14.1738 5.12146Z" fill="#8C96A2"/>
<path id="Vector_12" d="M131.803 12.6915C133.056 12.6915 134.072 11.6399 134.072 10.3428C134.072 9.04564 133.056 7.99408 131.803 7.99408C130.55 7.99408 129.534 9.04564 129.534 10.3428C129.534 11.6399 130.55 12.6915 131.803 12.6915Z" fill="#8C96A2"/>
</g>
</svg>
