<svg width="37" height="36" viewBox="0 0 37 36" fill="none" xmlns="http://www.w3.org/2000/svg">
<g id="charity" clip-path="url(#clip0_15_1086)">
<path id="Vector" d="M16.482 19.4556C17.3145 19.8073 18.1338 19.8298 19.027 19.8326C19.1225 19.8333 19.2181 19.8341 19.3136 19.835C19.7161 19.8385 20.1185 19.8419 20.521 19.8429C20.7685 19.8436 21.0159 19.8457 21.2634 19.8485C21.4013 19.8497 21.5392 19.8496 21.6771 19.8494C22.5962 19.8615 23.4836 20.0813 24.1701 20.7232C24.7031 21.2931 24.8668 21.8493 24.8554 22.6242C24.7909 23.3979 24.3814 23.8884 23.8236 24.3953C23.2859 24.8202 22.5779 24.9786 21.907 24.9858C21.8625 24.9863 21.818 24.9869 21.7721 24.9875C21.676 24.9887 21.5799 24.9897 21.4838 24.9906C21.3316 24.9921 21.1794 24.9939 21.0273 24.9959C20.6495 25.0007 20.2717 25.0048 19.8939 25.0089C19.5742 25.0124 19.2545 25.0161 18.9349 25.0203C18.7851 25.0221 18.6353 25.0235 18.4855 25.0249C18.3936 25.0261 18.3016 25.0272 18.2097 25.0284C18.0895 25.0297 18.0895 25.0297 17.9669 25.031C17.7944 25.0398 17.6509 25.0598 17.4867 25.1101C17.3912 25.3753 17.3396 25.5436 17.3965 25.8229C17.4263 25.8824 17.456 25.9419 17.4867 26.0032C17.7625 26.0951 18.0309 26.0878 18.3189 26.0928C18.383 26.0941 18.4472 26.0954 18.5133 26.0968C19.1065 26.1084 19.6998 26.115 20.2932 26.1202C20.6913 26.1238 21.0893 26.1289 21.4874 26.1378C21.873 26.1465 22.2584 26.151 22.644 26.1528C22.7903 26.1541 22.9366 26.1569 23.0828 26.1611C23.8191 26.1816 24.4068 26.1947 24.9746 25.6789C25.0812 25.5735 25.1838 25.4659 25.2846 25.355C25.4578 25.1727 25.6523 25.0163 25.8461 24.8568C25.9203 24.7943 25.9943 24.7317 26.0683 24.669C26.2617 24.5064 26.4572 24.3464 26.6533 24.187C26.9412 23.953 27.2229 23.7128 27.5034 23.47C27.8604 23.1615 28.2256 22.8668 28.5987 22.578C28.8825 22.357 29.1559 22.1264 29.4269 21.89C29.9186 21.4625 30.4336 21.0687 30.9546 20.6777C31.075 20.5864 31.1938 20.4935 31.312 20.3993C32.1655 19.73 33.1608 19.2069 34.2759 19.2468C34.8449 19.3237 35.4575 19.5058 35.8972 19.8892C36.1256 20.1889 36.1485 20.499 36.1342 20.8663C36.0229 21.5545 35.2987 22.1074 34.8372 22.5916C34.6732 22.7652 34.5168 22.9448 34.361 23.1257C34.2225 23.2853 34.081 23.442 33.9394 23.5988C33.7546 23.8036 33.571 24.0091 33.3898 24.2171C33.0552 24.6011 32.7126 24.9779 32.3712 25.3559C32.0972 25.6598 31.8252 25.9651 31.5565 26.2737C31.3611 26.496 31.1623 26.7152 30.964 26.9349C30.8326 27.0813 30.7025 27.2287 30.5733 27.3771C30.2386 27.7611 29.896 28.1379 29.5546 28.516C29.2806 28.8198 29.0087 29.1252 28.74 29.4337C28.5968 29.5967 28.4517 29.7578 28.3063 29.9189C28.1175 30.1281 27.9296 30.338 27.7439 30.55C27.7051 30.5941 27.6663 30.6382 27.6263 30.6836C27.5555 30.7662 27.4863 30.8502 27.4192 30.9359C26.7048 31.8339 25.468 32.3651 24.349 32.4997C23.863 32.5459 23.3771 32.5248 22.89 32.5105C22.5761 32.5013 22.2623 32.4936 21.9484 32.4859C21.8817 32.4842 21.8149 32.4825 21.7461 32.4808C20.8088 32.458 19.8713 32.4478 18.9337 32.4372C18.1726 32.4283 17.4121 32.4148 16.6514 32.391C15.7713 32.3641 14.8918 32.3484 14.0113 32.3506C13.9057 32.3509 13.9057 32.3509 13.7978 32.3511C11.5393 32.3524 11.5393 32.3524 9.65061 33.4709C9.21463 33.9374 8.85593 34.4394 8.55618 35.0024C8.31224 34.8985 8.15581 34.7564 7.9693 34.5694C7.90707 34.5074 7.84484 34.4453 7.78073 34.3814C7.7123 34.3125 7.64387 34.2436 7.57545 34.1746C7.50302 34.1022 7.43056 34.0297 7.35807 33.9573C7.16149 33.7608 6.96534 33.5638 6.76925 33.3668C6.56422 33.1609 6.3588 32.9554 6.15342 32.7498C5.76461 32.3606 5.37616 31.971 4.98782 31.5813C4.54569 31.1376 4.10316 30.6943 3.66059 30.2511C2.75026 29.3393 1.84042 28.4271 0.930908 27.5145C1.0517 27.2562 1.20033 27.0907 1.40309 26.8882C1.43707 26.8541 1.47105 26.82 1.50606 26.7849C1.61831 26.6724 1.73105 26.5604 1.84382 26.4484C1.92242 26.3698 2.00099 26.2913 2.07955 26.2127C2.24438 26.048 2.40944 25.8835 2.57468 25.7192C2.78521 25.5098 2.99529 25.3 3.20521 25.09C3.36762 24.9276 3.53021 24.7654 3.69286 24.6033C3.77029 24.5261 3.84769 24.4488 3.92504 24.3715C4.2934 24.0037 4.66298 23.6421 5.05865 23.3033C5.32119 23.0702 5.56324 22.816 5.8086 22.5652C5.92731 22.4449 6.04605 22.3247 6.16483 22.2045C6.34901 22.0178 6.53297 21.8309 6.71636 21.6434C9.49483 18.806 12.7114 17.8531 16.482 19.4556Z" fill="white"/>
<path id="Vector_2" d="M20.5092 1.89088C20.7366 2.06605 20.9522 2.25294 21.1608 2.44997C21.4066 2.68465 21.4066 2.68465 21.7458 2.71523C21.8836 2.59776 21.8836 2.59776 22.0163 2.44044C22.8705 1.55122 24.076 1.08472 25.2946 1.04356C26.598 1.02201 27.7882 1.3925 28.7528 2.30305C29.7005 3.27288 30.1664 4.49359 30.1556 5.84339C30.1178 6.91281 29.7435 7.94642 29.0406 8.75891C29.0059 8.79921 28.9711 8.83952 28.9353 8.88104C28.3476 9.54854 27.7062 10.1679 27.0759 10.7947C26.8853 10.9845 26.6952 11.1746 26.5049 11.3646C26.1461 11.723 25.787 12.081 25.4277 12.4389C25.0181 12.847 24.6088 13.2555 24.1996 13.664C23.3592 14.503 22.5183 15.3415 21.6771 16.1797C21.4354 16.0762 21.279 15.9366 21.0934 15.7518C21.0319 15.6908 20.9704 15.6299 20.907 15.5671C20.8393 15.4994 20.7716 15.4317 20.704 15.3639C20.6323 15.2927 20.5606 15.2215 20.4889 15.1503C20.2943 14.9568 20.1001 14.763 19.906 14.569C19.7845 14.4476 19.6629 14.3263 19.5413 14.205C19.1163 13.7813 18.6918 13.3573 18.2675 12.933C17.8732 12.5385 17.4781 12.1449 17.0826 11.7516C16.7424 11.4131 16.4027 11.0742 16.0634 10.7348C15.8611 10.5325 15.6586 10.3304 15.4555 10.1288C15.2642 9.93874 15.0735 9.74805 14.8833 9.55685C14.8138 9.48725 14.7441 9.41788 14.6742 9.34877C13.6637 8.34956 13.0407 7.18528 12.9956 5.74215C13.0381 4.52 13.4312 3.42422 14.2579 2.50914C14.2969 2.463 14.336 2.41687 14.3762 2.36933C15.9186 0.669839 18.6843 0.689397 20.5092 1.89088Z" fill="white"/>
</g>
<defs>
<clipPath id="clip0_15_1086">
<rect width="35.1724" height="35.1724" fill="white" transform="translate(0.930908 0.448242)"/>
</clipPath>
</defs>
</svg>
