<svg width="56" height="56" viewBox="0 0 56 56" fill="none" xmlns="http://www.w3.org/2000/svg">
<g id="handshake">
<g id="Group">
<path id="Vector" d="M14.7656 1.92491C11.9875 2.25304 9.4719 3.12804 7.43752 4.45147C3.64221 6.93429 1.08283 10.7733 0.251585 15.2359C-0.0327904 16.7452 -0.0109154 19.7093 0.306272 21.1749C0.645335 22.739 1.01721 23.8327 1.6844 25.2109C2.43908 26.7421 3.30315 27.9562 4.81252 29.5859C5.8844 30.7343 5.99377 30.8984 5.89533 31.128C5.84065 31.2812 5.75315 31.7077 5.68752 32.0796C5.26096 34.803 7.42658 37.3734 10.2047 37.428L10.9594 37.4499L10.8938 37.8655C10.7953 38.4562 11.0031 39.6374 11.3313 40.3265C11.7578 41.2343 12.5781 42.0437 13.5297 42.514C14.2188 42.853 14.4813 42.9187 15.2688 42.9624L16.1875 43.0062L16.1219 43.4218C16.0235 44.0015 16.2531 45.2046 16.5813 45.8937C17.325 47.4687 19.075 48.5624 20.8469 48.5624H21.4047L21.35 49.0874C21.2406 50.2577 21.8422 51.8218 22.7281 52.7077C23.8 53.7796 25.4297 54.3046 26.8516 54.0421C28.0766 53.8234 28.711 53.4187 30.6031 51.6577C32.8453 49.5577 34.8578 47.5671 34.9125 47.3702C34.9453 47.2499 35.0547 47.2609 35.4922 47.414C38.4125 48.4312 41.5406 46.3749 41.7485 43.3234L41.8141 42.4702L42.8094 42.4155C43.6188 42.3718 43.9469 42.2952 44.5375 42.0218C46.2438 41.2452 47.3594 39.5062 47.3594 37.614V37.1874H48.1141C49.9953 37.1874 51.636 36.1593 52.4016 34.5077C53.1672 32.8671 53.025 31.1609 51.9969 29.7171C51.7781 29.4218 51.6469 29.1374 51.7016 29.0609C51.7344 28.9843 52.0078 28.6562 52.2922 28.328C53.9 26.4468 55.1031 23.9202 55.6938 21.1749C56.011 19.6874 56.0328 16.6249 55.7485 15.1483C54.5563 9.22023 50.4875 4.57179 44.8438 2.69054C43.0938 2.09991 41.9016 1.92491 39.8125 1.92491C37.7781 1.92491 36.6297 2.08897 34.9235 2.63585C32.725 3.33585 30.7781 4.46241 28.9625 6.05929L28 6.90147L27.0485 6.05929C24.6969 4.00304 21.9297 2.63585 19.0641 2.13272C18.1125 1.95773 15.4985 1.83741 14.7656 1.92491ZM18.8016 3.9921C21.4703 4.50616 23.7453 5.63272 25.9 7.52491C26.2719 7.85304 26.5781 8.15929 26.5781 8.20304C26.5781 8.24679 24.8938 9.86554 22.8375 11.8015C20.7703 13.7374 18.9 15.5421 18.6813 15.8155C18.0578 16.5702 17.7953 17.3796 17.85 18.4296C17.9266 19.7749 18.55 20.803 19.8078 21.6452C21.7328 22.9359 24.4672 22.903 26.2391 21.5687C26.5235 21.3499 28.3938 19.6327 30.3844 17.7515C32.5063 15.7499 34.125 14.3062 34.2891 14.2624C34.4531 14.2187 34.6938 14.2405 34.825 14.3062C35.2516 14.4921 50.4438 30.6905 50.7391 31.2593C51.2641 32.2874 50.9797 33.8187 50.1156 34.5734C49.0656 35.4921 47.5563 35.5905 46.5063 34.814C46.3094 34.6718 43.3016 31.5327 39.8235 27.8468C36.3344 24.1609 33.4031 21.1093 33.3047 21.0655C32.6703 20.8249 32.0469 21.2624 32.0469 21.9405C32.0469 22.2796 32.1453 22.4437 32.736 23.0562C38.3031 28.8968 45.0078 36.0937 45.1828 36.4327C45.9047 37.8655 45.2266 39.714 43.7281 40.3593C42.9844 40.6765 41.9344 40.6327 41.2453 40.239C40.8516 40.0202 38.0188 37.0671 28.3172 26.7749C27.9016 26.3265 27.7594 26.2499 27.4203 26.2499C27.125 26.2499 26.9281 26.3265 26.7422 26.5234C26.3813 26.8734 26.3922 27.3218 26.775 27.803C26.9391 28.0109 29.8266 31.0952 33.1953 34.6499C37.0125 38.6859 39.4188 41.3218 39.5938 41.6499C39.9656 42.339 39.9766 43.5859 39.6266 44.2421C39.3531 44.7562 38.8172 45.2921 38.2813 45.5655C37.8219 45.8062 36.5313 45.839 36.0281 45.6312C35.6891 45.489 35.6781 45.4671 35.6344 44.5921C35.5688 43.5093 35.2516 42.6452 34.661 41.8905C33.775 40.7749 32.5063 40.1187 31.1719 40.0968L30.4281 40.0859L30.3844 39.0468C30.3516 38.1609 30.2969 37.8984 30.0016 37.264C29.5531 36.3124 28.6781 35.4265 27.7594 34.9999C27.0266 34.6609 25.8344 34.4202 25.4078 34.5187C25.1563 34.5843 25.1563 34.5734 25.1563 33.7202C25.1563 32.6484 24.9594 31.9484 24.4016 31.0843C23.5813 29.8265 22.0391 28.9843 20.5406 28.9843H19.8735L19.95 28.5687C20.0485 27.9343 19.8297 26.8187 19.4578 26.053C18.5719 24.2374 16.461 23.1437 14.4813 23.4827C13.125 23.7124 12.6547 24.0515 9.80002 26.7421C8.36721 28.0984 7.15315 29.203 7.1094 29.203C6.90158 29.203 4.95471 26.9827 4.3094 26.0202C2.63596 23.5265 1.92502 21.1312 1.92502 18.0468C1.91408 14.0984 3.2594 10.8499 6.07033 8.02804C8.53127 5.55616 11.2328 4.2546 14.875 3.78429C15.575 3.69678 17.8719 3.8171 18.8016 3.9921ZM42.9953 4.09054C46.6375 4.93272 49.7766 7.12022 51.811 10.2483C55.2016 15.4437 54.8516 22.1812 50.9688 27.0265C50.6625 27.4093 50.3563 27.7265 50.3016 27.7265C50.2469 27.7265 47.0641 24.4015 43.225 20.3437C38.5875 15.4327 36.1047 12.8733 35.7985 12.7093C35.1531 12.3593 34.3 12.2827 33.5781 12.5233C32.9656 12.7312 33.261 12.4577 27.311 18.0905C24.8391 20.4093 24.3469 20.7155 22.9797 20.7155C22.0938 20.7046 21.4485 20.4968 20.6391 19.939C19.7313 19.3155 19.4141 18.1015 19.9391 17.2702C20.1688 16.8983 29.3016 8.20304 30.7344 6.98898C32.6266 5.3921 35.0328 4.32022 37.7016 3.88272C39.1125 3.65304 41.4969 3.74054 42.9953 4.09054ZM16.3516 25.528C17.3469 25.9437 18.0469 27.0374 18.0469 28.164C18.0469 29.3671 17.8391 29.6296 14.886 32.4405C13.4203 33.8296 11.9875 35.0874 11.6813 35.2734C11.211 35.5359 10.9922 35.5905 10.4016 35.5905C9.5594 35.5796 9.04533 35.3937 8.44377 34.8468C7.82033 34.289 7.5469 33.6327 7.5469 32.7577C7.5469 32.0249 7.71096 31.4671 8.06096 31.0187C8.31252 30.7015 13.0703 26.2062 13.5406 25.8343C14.2516 25.2874 15.4547 25.1562 16.3516 25.528ZM21.7 31.1171C22.7172 31.6093 23.286 32.539 23.2969 33.6984C23.2969 34.9234 23.111 35.1749 20.0156 38.0952C18.5172 39.4952 17.1063 40.7421 16.8766 40.8624C16.2203 41.1796 15.1375 41.2015 14.4594 40.9062C13.3985 40.4468 12.775 39.4843 12.7641 38.2812C12.7531 37.089 12.95 36.8265 16.0344 33.9171C19.1297 31.0077 19.4141 30.8109 20.5625 30.8765C20.9672 30.8874 21.4594 30.9968 21.7 31.1171ZM26.4578 36.5968C27.1688 36.8046 27.9453 37.4827 28.2516 38.1609C28.536 38.8062 28.536 39.8343 28.2516 40.4796C28.0219 40.9718 27.311 41.7046 24.2266 44.614C22.4219 46.3093 22.0063 46.5937 21.1203 46.6702C19.4031 46.8234 18.0141 45.5765 18.0031 43.8593C17.9922 42.6343 18.1235 42.4593 21.1531 39.5827C22.6406 38.1718 23.986 36.9577 24.15 36.8702C25.036 36.3999 25.5828 36.3343 26.4578 36.5968ZM32.025 42.164C32.5391 42.3827 33.1953 43.0171 33.5016 43.5859C33.6766 43.903 33.7313 44.2202 33.7422 44.789C33.7422 46.0468 33.6 46.2437 30.6031 49.0874C29.1703 50.4546 27.7594 51.7015 27.475 51.8655C26.086 52.6749 24.3578 52.1718 23.5703 50.739C23.2969 50.2468 23.2422 50.028 23.2422 49.3827C23.2422 48.1687 23.4391 47.9062 26.5235 45.0077C28 43.6187 29.411 42.3827 29.6625 42.2515C30.2422 41.9562 31.4016 41.9124 32.025 42.164Z" fill="#13668E"/>
</g>
</g>
</svg>
