<svg width="28" height="26" viewBox="0 0 28 26" fill="none" xmlns="http://www.w3.org/2000/svg">
<path id="Vector" fill-rule="evenodd" clip-rule="evenodd" d="M9.74642 23.6466C5.6272 20.1809 0 14.4559 0 9.04286C0 0.504833 7.70022 -3.37619 14 3.60933C20.2997 -3.37619 28 0.504559 28 9.0428C28 14.456 22.3728 20.1809 18.2536 23.6466C16.3888 25.2155 15.4564 26 14 26C12.5436 26 11.6112 25.2155 9.74642 23.6466ZM11.3305 11.1891C11.4558 11.0044 11.5599 10.851 11.6526 10.7197C11.731 10.8605 11.8185 11.0246 11.9238 11.2222L14.3182 15.7137C14.5506 16.15 14.7787 16.578 15.0076 16.8886C15.2526 17.2208 15.6832 17.6762 16.3736 17.6895C17.0638 17.703 17.5108 17.2646 17.7677 16.942C18.0078 16.6406 18.2511 16.2218 18.4993 15.7949L18.5769 15.6614C18.886 15.1298 19.0806 14.7975 19.2528 14.5574C19.4116 14.3363 19.5033 14.264 19.5717 14.2242C19.64 14.1842 19.7473 14.1402 20.0127 14.1135C20.3008 14.0846 20.6772 14.0835 21.278 14.0835H22.4C22.9799 14.0835 23.45 13.5984 23.45 13.0001C23.45 12.4019 22.9799 11.9168 22.4 11.9168H21.2327C20.6907 11.9168 20.2114 11.9168 19.8096 11.9571C19.3739 12.0007 18.95 12.0974 18.537 12.3387C18.124 12.58 17.8255 12.9052 17.5651 13.2682C17.3249 13.6029 17.0783 14.027 16.7994 14.5066L16.7329 14.621C16.6116 14.8298 16.5102 15.0037 16.4198 15.1531C16.3346 15.0004 16.2399 14.8226 16.126 14.6093L13.7329 10.1198C13.5171 9.71476 13.3021 9.31126 13.0841 9.01546C12.8458 8.69231 12.4375 8.26502 11.783 8.22857C11.1284 8.19211 10.6778 8.57154 10.4072 8.86633C10.1596 9.1362 9.90374 9.51347 9.64697 9.89215L9.21383 10.5306C8.89582 10.9993 8.69645 11.2914 8.52387 11.502C8.365 11.6958 8.2767 11.7594 8.21153 11.7943C8.14635 11.8294 8.04528 11.8676 7.80023 11.8907C7.53402 11.9158 7.18778 11.9168 6.63324 11.9168H5.6C5.02011 11.9168 4.55 12.4019 4.55 13.0001C4.55 13.5984 5.02011 14.0835 5.6 14.0835H6.67537C7.17513 14.0835 7.61814 14.0835 7.99121 14.0484C8.3959 14.0102 8.79066 13.926 9.18133 13.7162C9.572 13.5063 9.86525 13.221 10.1276 12.9008C10.3695 12.6055 10.6235 12.2311 10.9101 11.8086L11.3305 11.1891Z" fill="white"/>
</svg>
