<svg width="37" height="37" viewBox="0 0 37 37" fill="none" xmlns="http://www.w3.org/2000/svg">
<g id="living-room">
<path id="Vector" d="M15.6746 10.7663C15.9444 10.767 16.2141 10.7663 16.4839 10.7659C16.9365 10.7654 17.3891 10.766 17.8417 10.7674C18.3614 10.7689 18.881 10.7684 19.4006 10.7669C19.8507 10.7656 20.3008 10.7654 20.7508 10.7661C21.0179 10.7666 21.285 10.7666 21.5521 10.7657C24.2227 10.7578 26.3769 11.3507 28.3408 13.2257C29.0617 13.9731 29.5869 14.8068 30.0116 15.7512C30.0316 15.7947 30.0517 15.8382 30.0723 15.883C30.161 16.0807 30.2178 16.2193 30.2178 16.4385C30.1472 16.4634 30.0766 16.4884 30.0038 16.5142C28.5436 17.0394 27.4568 17.7884 26.7602 19.2174C26.102 20.7287 26.2726 22.369 26.2319 23.998C21.1519 23.998 16.0719 23.998 10.838 23.998C10.8153 23.0908 10.7926 22.1837 10.7692 21.2491C10.5713 19.6653 10.1461 18.4886 8.93467 17.4476C8.31021 16.9678 7.60125 16.667 6.85205 16.4385C7.12578 14.7681 8.57064 13.1968 9.87894 12.2449C10.354 11.9123 10.8589 11.6568 11.3878 11.4217C11.461 11.3886 11.5343 11.3554 11.6098 11.3213C12.9284 10.7698 14.2709 10.7614 15.6746 10.7663Z" fill="white"/>
<path id="Vector_2" d="M10.8379 25.0977C15.9179 25.0977 20.9979 25.0977 26.2318 25.0977C26.2318 27.8191 26.2318 30.5405 26.2318 33.3444C21.1518 33.3444 16.0718 33.3444 10.8379 33.3444C10.8379 30.623 10.8379 27.9015 10.8379 25.0977Z" fill="white"/>
<path id="Vector_3" d="M32.7608 17.6758C32.8268 17.7074 32.8929 17.7389 32.961 17.7714C33.9888 18.2978 34.6024 19.1371 34.9628 20.2294C35.0324 20.5088 35.0508 20.7692 35.0517 21.055C35.0524 21.1337 35.0524 21.1337 35.0531 21.214C35.0538 21.3244 35.0541 21.4348 35.0541 21.5452C35.0544 21.7119 35.0569 21.8784 35.0595 22.0451C35.0661 22.9532 34.9208 23.663 34.2727 24.3419C33.6878 24.9003 33.0387 25.1021 32.2475 25.1948C32.053 25.2401 31.9857 25.2833 31.8674 25.4415C31.8005 25.6422 31.7899 25.7703 31.7896 25.9792C31.7893 26.0475 31.7891 26.1158 31.7888 26.1862C31.7888 26.2611 31.7889 26.3359 31.7889 26.4131C31.7885 26.5314 31.7885 26.5314 31.7882 26.6522C31.7877 26.8239 31.7873 26.9955 31.787 27.1672C31.7866 27.439 31.7855 27.7108 31.7842 27.9826C31.7838 28.0758 31.7833 28.1689 31.7829 28.2621C31.7827 28.3087 31.7825 28.3554 31.7822 28.4034C31.7794 29.0361 31.7771 29.6688 31.7762 30.3015C31.7757 30.7284 31.7741 31.1553 31.7715 31.5822C31.7701 31.8079 31.7694 32.0336 31.7696 32.2593C31.7698 32.5115 31.7682 32.7636 31.7663 33.0158C31.767 33.1271 31.767 33.1271 31.7677 33.2406C31.7613 33.7614 31.6725 34.1272 31.32 34.5295C31.2753 34.5666 31.2305 34.6036 31.1844 34.6418C31.1399 34.6798 31.0953 34.7179 31.0494 34.7572C30.6229 35.0511 30.1861 35.0195 29.6851 35.0194C29.5448 35.0197 29.4046 35.0222 29.2644 35.0248C28.6606 35.0266 28.2619 34.9922 27.7961 34.584C27.7405 34.5169 27.7405 34.5169 27.6839 34.4485C27.6458 34.4039 27.6077 34.3594 27.5684 34.3134C27.3401 33.982 27.3116 33.6777 27.3133 33.2838C27.313 33.2296 27.3127 33.1755 27.3123 33.1197C27.3115 32.9384 27.3116 32.7572 27.3117 32.5759C27.3113 32.4458 27.3108 32.3158 27.3103 32.1857C27.3091 31.8324 27.3088 31.4791 27.3087 31.1258C27.3086 30.9049 27.3083 30.684 27.3079 30.463C27.3066 29.6917 27.3061 28.9203 27.3062 28.1489C27.3063 27.431 27.3048 26.7131 27.3026 25.9951C27.3008 25.3781 27.3001 24.761 27.3002 24.1439C27.3002 23.7757 27.2999 23.4074 27.2984 23.0392C27.2971 22.6925 27.2971 22.3458 27.2981 21.999C27.2982 21.8723 27.2979 21.7455 27.297 21.6187C27.29 20.481 27.5059 19.417 28.3067 18.5475C29.4753 17.4619 31.2661 16.9487 32.7608 17.6758Z" fill="white"/>
<path id="Vector_4" d="M7.47047 17.6758C7.53656 17.7074 7.60264 17.7389 7.67073 17.7714C8.69911 18.2981 9.31105 19.1372 9.67278 20.2295C9.74226 20.5093 9.75791 20.7677 9.7567 21.0537C9.75701 21.1082 9.75732 21.1627 9.75764 21.2188C9.75851 21.4003 9.7584 21.5817 9.75829 21.7632C9.7587 21.8937 9.75917 22.0243 9.75969 22.1548C9.7609 22.5086 9.76122 22.8625 9.76131 23.2163C9.76141 23.4375 9.7617 23.6587 9.76207 23.8798C9.76334 24.6518 9.7639 25.4237 9.76379 26.1957C9.76371 26.9148 9.76516 27.6339 9.76733 28.353C9.76913 28.9709 9.76986 29.5888 9.76978 30.2067C9.76974 30.5755 9.77013 30.9444 9.77159 31.3132C9.77292 31.66 9.77293 32.0069 9.77193 32.3537C9.77178 32.4808 9.77211 32.6079 9.77294 32.735C9.774 32.9089 9.77336 33.0828 9.7723 33.2567C9.77301 33.3066 9.77372 33.3565 9.77445 33.408C9.76857 33.8471 9.61783 34.1993 9.3284 34.5295C9.28366 34.5666 9.23893 34.6036 9.19283 34.6418C9.12599 34.6989 9.12599 34.6989 9.0578 34.7572C8.63128 35.0511 8.19451 35.0195 7.69347 35.0194C7.55317 35.0197 7.41303 35.0222 7.27276 35.0248C6.66898 35.0266 6.27029 34.9922 5.80448 34.584C5.74893 34.5169 5.74893 34.5169 5.69227 34.4485C5.65418 34.4039 5.61608 34.3594 5.57684 34.3134C5.39109 34.0439 5.32295 33.8017 5.32185 33.4762C5.321 33.373 5.321 33.373 5.32013 33.2678C5.32023 33.1557 5.32023 33.1557 5.32033 33.0414C5.31986 32.9621 5.31939 32.8829 5.31891 32.8012C5.31798 32.6292 5.31735 32.4573 5.31701 32.2853C5.31644 32.0132 5.31505 31.7412 5.3134 31.4691C5.30975 30.8426 5.30745 30.216 5.30516 29.5894C5.30305 29.015 5.30066 28.4406 5.29717 27.8662C5.29531 27.5523 5.2945 27.2385 5.29387 26.9246C5.29297 26.7604 5.29204 26.5962 5.29107 26.4319C5.29117 26.3199 5.29117 26.3199 5.29128 26.2056C5.29042 26.1024 5.29042 26.1024 5.28955 25.9971C5.28935 25.9376 5.28915 25.8781 5.28894 25.8167C5.26881 25.6234 5.22027 25.4779 5.1339 25.304C4.88808 25.1655 4.64262 25.1415 4.36506 25.1108C3.58669 24.9958 2.9737 24.6185 2.4835 23.9999C2.04268 23.3394 2.00657 22.6777 2.01072 21.9091C2.0113 21.7444 2.00932 21.5799 2.00714 21.4152C2.00226 20.3566 2.28018 19.3469 3.01637 18.5475C4.18506 17.4619 5.97578 16.9487 7.47047 17.6758Z" fill="white"/>
<path id="Vector_5" d="M8.1579 2.28184C8.23142 2.31444 8.30495 2.34705 8.38071 2.38063C9.57596 2.9656 10.2989 3.9342 10.7522 5.17142C10.8358 5.4526 10.8432 5.71753 10.841 6.01032C10.8406 6.08434 10.8402 6.15836 10.8397 6.23463C10.8392 6.29092 10.8386 6.34721 10.8381 6.40521C10.9306 6.40305 10.9306 6.40305 11.0249 6.40085C11.256 6.39613 11.487 6.3927 11.7181 6.39011C11.8177 6.38874 11.9172 6.38687 12.0168 6.38447C12.6633 6.36932 13.1592 6.36545 13.6724 6.81513C13.7094 6.85987 13.7464 6.90461 13.7846 6.9507C13.8417 7.01754 13.8417 7.01754 13.9 7.08573C14.2078 7.53251 14.1831 8.01136 14.1368 8.53562C14.0213 8.99328 13.6926 9.30431 13.3121 9.56646C13.0245 9.70947 12.7615 9.72428 12.4461 9.72387C12.3947 9.72433 12.3432 9.72479 12.2902 9.72527C12.1207 9.72657 11.9512 9.72684 11.7817 9.72699C11.6633 9.72743 11.5449 9.7279 11.4266 9.72838C11.1786 9.7292 10.9306 9.72945 10.6826 9.72937C10.3658 9.72936 10.049 9.73123 9.73218 9.7336C9.48768 9.73514 9.24319 9.73541 8.99869 9.73534C8.88194 9.7355 8.7652 9.7361 8.64846 9.73717C7.42158 9.74733 7.42158 9.74733 6.90424 9.29398C6.86721 9.24925 6.83018 9.20451 6.79203 9.15842C6.75394 9.11386 6.71585 9.0693 6.6766 9.02339C6.36876 8.5766 6.39346 8.09776 6.43983 7.5735C6.55534 7.11583 6.88404 6.8048 7.2645 6.54266C7.54766 6.40329 7.77884 6.38912 8.09266 6.39179C8.13794 6.39198 8.18321 6.39218 8.22986 6.39238C8.3734 6.39314 8.5169 6.39487 8.66043 6.39662C8.75819 6.39731 8.85595 6.39794 8.95371 6.3985C9.19242 6.40001 9.4311 6.40238 9.6698 6.40521C9.537 5.43887 9.31595 4.59967 8.55547 3.93575C7.71696 3.30381 6.84759 3.12947 5.82132 3.24396C5.11727 3.382 4.50894 3.73628 4.03453 4.2748C4.00149 4.31183 3.96844 4.34886 3.9344 4.38702C3.22119 5.25009 3.1973 6.24446 3.20837 7.31087C3.20998 7.46584 3.21115 7.6208 3.21221 7.77577C3.21336 7.94303 3.21453 8.11029 3.21584 8.27754C3.21903 8.69182 3.22075 9.10608 3.22161 9.52036C3.22174 9.58074 3.22187 9.64112 3.222 9.70333C3.22248 9.95201 3.22292 10.2007 3.22331 10.4494C3.22446 11.1531 3.22707 11.8568 3.23412 12.5605C3.23972 13.1211 3.24215 13.6817 3.24089 14.2423C3.24034 14.5384 3.24135 14.8343 3.24622 15.1303C3.27821 17.1703 3.27821 17.1703 2.82461 17.6463C2.64124 17.7994 2.46064 17.9101 2.24774 18.0194C2.14568 18.0874 2.14568 18.0874 2.04157 18.1568C2.03514 16.5325 2.03029 14.9082 2.02733 13.2839C2.02591 12.5296 2.02398 11.7754 2.02083 11.0211C2.01809 10.3634 2.01632 9.70572 2.01571 9.04803C2.01535 8.70003 2.01451 8.35206 2.01251 8.00407C2.01063 7.67595 2.01007 7.34785 2.01048 7.01972C2.0104 6.89986 2.00986 6.77999 2.0088 6.66013C1.99783 5.35663 2.33847 4.22459 3.25153 3.25655C4.47337 2.02771 6.55066 1.54611 8.1579 2.28184Z" fill="white"/>
<path id="Vector_6" d="M2.04153 24.96C2.08059 24.9865 2.11966 25.0131 2.15991 25.0405C2.48051 25.2567 2.80271 25.46 3.14109 25.6472C3.14751 26.8252 3.15236 28.0032 3.15533 29.1812C3.15675 29.7282 3.15868 30.2752 3.16183 30.8221C3.16457 31.2988 3.16634 31.7755 3.16695 32.2522C3.16731 32.5047 3.16816 32.7571 3.17015 33.0095C3.17237 33.2913 3.17243 33.5729 3.1723 33.8547C3.17329 33.9385 3.17427 34.0223 3.17529 34.1087C3.17491 34.1854 3.17454 34.2621 3.17415 34.3412C3.1744 34.4078 3.17465 34.4744 3.17492 34.5431C3.13133 34.7692 3.04299 34.8509 2.8662 34.9935C2.72875 35.03 2.72875 35.03 2.59131 35.0278C2.54595 35.0286 2.50059 35.0293 2.45386 35.03C2.2524 34.9765 2.17238 34.8789 2.04153 34.7186C2.0077 34.5324 2.0077 34.5324 2.00847 34.3151C2.00809 34.2326 2.00771 34.1501 2.00732 34.0651C2.00831 33.9748 2.0093 33.8846 2.01032 33.7916C2.0104 33.6954 2.01035 33.5992 2.0102 33.503C2.01012 33.2421 2.01174 32.9811 2.01365 32.7202C2.01537 32.4474 2.01553 32.1746 2.01586 31.9019C2.01671 31.3854 2.01897 30.8689 2.02173 30.3525C2.0248 29.7645 2.02631 29.1765 2.02769 28.5885C2.03057 27.379 2.0354 26.1695 2.04153 24.96Z" fill="white"/>
</g>
</svg>
