<svg width="113" height="80" viewBox="0 0 113 80" fill="none" xmlns="http://www.w3.org/2000/svg">
<path id="&#226;&#128;&#156;" d="M113 0.78889L110.148 17.4495C104.445 17.0598 99.8107 17.8393 96.2461 19.7879C92.6814 21.6391 90.1861 24.3671 88.7603 27.972C87.4532 31.4795 87.2156 35.5716 88.0473 40.2483H113V80H64.5205V40.2483C64.5205 26.2183 68.5011 15.5984 76.4622 8.38849C84.4232 1.08118 96.6025 -1.45202 113 0.78889ZM48.4795 0.78889L45.6278 17.4495C39.9243 17.0598 35.2902 17.8393 31.7256 19.7879C28.1609 21.6391 25.6656 24.3671 24.2397 27.972C22.9327 31.4795 22.6951 35.5716 23.5268 40.2483H48.4795V80H0V40.2483C0 26.2183 3.98055 15.5984 11.9416 8.38849C19.9027 1.08118 32.082 -1.45202 48.4795 0.78889Z" fill="#13668E" fill-opacity="0.05"/>
</svg>
