<svg width="72" height="72" viewBox="0 0 72 72" fill="none" xmlns="http://www.w3.org/2000/svg">
<g id="targeting">
<g id="Group">
<path id="Vector" d="M35.5078 3.71243C34.7344 4.04993 34.7344 4.07806 34.7344 11.4609C34.7344 19.1952 34.875 18.4499 33.4406 18.6187C30.9656 18.9281 27.6328 20.3343 25.4391 21.9937C23.3297 23.5968 21.4453 25.8609 20.25 28.2515C19.6312 29.4749 18.9141 31.7531 18.7031 33.1171C18.4219 34.8609 18.6609 34.7343 15.7641 34.7343C13.7109 34.7343 13.2187 34.6921 13.0781 34.5234C12.9375 34.3546 12.9375 34.0171 13.0781 32.8781C14.0062 25.1015 18.8156 18.2671 25.8047 14.7656C26.7328 14.3156 28.1391 13.7109 28.9406 13.4577C29.7422 13.1906 30.5156 12.8812 30.6562 12.7546C31.3031 12.2062 31.0922 11.0812 30.2766 10.7296C29.8266 10.5468 29.7 10.5749 28.0969 11.1093C18.5203 14.3015 11.6719 22.8796 10.5609 33.0327C10.4766 33.7499 10.35 34.4249 10.2516 34.5374C10.125 34.6921 9.53437 34.7343 7.35468 34.7343C4.59843 34.7343 4.21874 34.7906 3.83906 35.2827C3.65624 35.5218 3.59999 36.2531 3.74062 36.6327C3.97968 37.2374 4.26093 37.2656 11.3625 37.2656C16.5375 37.2656 18.1406 37.3077 18.2953 37.4343C18.4359 37.5468 18.6047 38.1656 18.7453 38.9531C19.8422 45.3937 24.2859 50.5687 30.5156 52.6499C31.3312 52.9171 32.4703 53.2124 33.0469 53.2968C34.8891 53.5781 34.7344 53.2968 34.7344 56.3765C34.7344 58.4999 34.6922 59.0624 34.5375 59.189C34.3828 59.3156 34.0594 59.3156 33.1594 59.2031C27.7734 58.4718 23.0203 56.0249 19.2516 52.0593C16.6078 49.289 14.8219 46.1109 13.7109 42.2577C13.5 41.4702 13.2469 40.8937 13.0641 40.739C12.6141 40.3734 11.8687 40.4296 11.4328 40.8656C11.1094 41.189 11.0812 41.3015 11.1516 41.9202C11.2781 42.9046 12.2484 45.7312 13.0078 47.3062C16.875 55.2515 24.3984 60.6374 33.1734 61.7202C33.8203 61.8046 34.4391 61.9452 34.5375 62.0296C34.6922 62.1562 34.7344 62.7609 34.7344 64.7859C34.7344 67.6687 34.8328 68.0624 35.5781 68.3156C36.1125 68.5124 36.7734 68.3015 37.0266 67.8656C37.1531 67.6546 37.2094 65.7421 37.2656 60.6093L37.3359 53.6484L37.6875 53.5499C37.8844 53.4937 38.5875 53.3531 39.2484 53.2406C46.4203 51.9468 52.1578 46.0406 53.2969 38.7421C53.3953 38.1234 53.5359 37.5327 53.6203 37.4343C53.7187 37.3077 54.3937 37.2656 56.3766 37.2937L58.9922 37.3359L58.9781 38.3906C58.9641 39.7546 58.6125 41.4421 57.9375 43.4671C55.5891 50.5546 50.0203 56.0249 42.7781 58.3452C41.4984 58.7671 40.8516 59.0484 40.7109 59.2452C40.4156 59.6671 40.4437 60.3702 40.7953 60.8062C41.2031 61.3265 41.9062 61.2843 43.9312 60.6093C50.8078 58.289 56.5594 53.0859 59.4141 46.5749C60.4969 44.0999 61.3125 41.1327 61.5375 38.7421C61.6781 37.2234 61.5797 37.2656 64.8562 37.2656C67.6406 37.2656 67.6547 37.2656 67.9922 36.914C68.4844 36.4359 68.4703 35.6062 67.9781 35.1421L67.6125 34.8046H59.6812H51.7641L51.4547 35.114C51.2016 35.3531 51.1312 35.6624 51.0328 36.8015C50.8641 38.5734 50.6812 39.4452 50.175 40.9218C47.1797 49.4999 36.8859 53.5921 28.9828 49.3452C23.3437 46.3218 20.1937 40.1343 21.15 33.9327C22.2469 26.7187 27.9141 21.4312 34.9875 20.9952C36.2391 20.9249 36.5203 20.8546 36.8297 20.5874L37.1953 20.2781L37.2375 12.5015C37.2656 6.69369 37.2234 4.61243 37.1109 4.30306C36.9984 4.064 36.7453 3.82494 36.4781 3.71243C35.9297 3.48743 36.0281 3.48743 35.5078 3.71243Z" fill="#FDBA09"/>
<path id="Vector_2" d="M53.0578 10.9405C51.6797 12.2483 49.5 14.3998 48.2062 15.7217L45.8437 18.0983V21.403V24.7077L40.2891 30.3467C34.1156 36.6045 34.2703 36.3936 35.1562 37.2936C35.5359 37.6592 35.6625 37.7155 36.1125 37.6452C36.5766 37.5608 37.2656 36.928 41.9766 32.203C44.9156 29.2498 47.4187 26.7748 47.5312 26.7045C47.6437 26.6342 49.1906 26.578 50.9766 26.578H54.1969L58.9359 21.853C61.6922 19.0967 63.7031 16.9873 63.7453 16.7905C63.8156 16.3686 63.5062 15.6655 63.1547 15.4827C62.9859 15.3842 61.8469 15.328 60.2156 15.328C57.825 15.328 57.5297 15.2998 57.3328 15.0748C57.1219 14.8498 57.0937 14.428 57.0937 12.1217C57.0937 9.53421 57.0797 9.42171 56.7844 9.08421C56.6016 8.87328 56.2641 8.6764 56.0109 8.63421C55.5891 8.54984 55.4344 8.66234 53.0578 10.9405ZM54.3937 13.9498C54.5062 14.0623 54.5625 14.6108 54.5625 15.5108C54.5625 16.8608 54.5766 16.903 54.9703 17.3108C55.3781 17.7045 55.4203 17.7186 56.7984 17.7186C57.8953 17.7186 58.2469 17.7608 58.4297 17.9436C58.5562 18.0702 58.6406 18.267 58.6125 18.3655C58.5844 18.478 57.3047 19.828 55.7578 21.3748L52.9453 24.2014L50.7234 24.1592C48.9375 24.1311 48.4734 24.0748 48.375 23.9061C48.3047 23.7936 48.2344 22.7108 48.2344 21.5014V19.3077L50.9203 16.5514C53.6062 13.767 53.9578 13.5139 54.3937 13.9498Z" fill="#FDBA09"/>
<path id="Vector_3" d="M34.5234 25.7342C33.3703 25.903 32.6109 26.142 31.4297 26.7186C25.8187 29.4186 23.8781 36.5483 27.3375 41.7514C29.1797 44.5077 32.1609 46.2233 35.4375 46.378C41.0906 46.6452 45.7734 42.567 46.35 36.8999C46.4625 35.8452 46.3641 35.3952 45.9562 35.0155C45.6047 34.692 44.775 34.6358 44.4234 34.917C44.0859 35.1702 43.875 35.6483 43.875 36.1405C43.875 36.942 43.425 38.5874 42.9187 39.6561C42.0187 41.5686 40.1203 43.1155 38.0109 43.6639C37.0687 43.917 35.3391 43.9311 34.2844 43.7202C32.1047 43.2702 29.8828 41.5264 28.9266 39.5014C27.45 36.3795 27.9984 32.9061 30.3469 30.5295C31.8234 29.0249 33.1875 28.378 35.325 28.1389C36.3234 28.0264 36.5344 27.9561 36.8016 27.6327C37.2516 27.1124 37.2234 26.5077 36.7172 26.0014C36.2672 25.5655 35.9437 25.5233 34.5234 25.7342Z" fill="#FDBA09"/>
</g>
</g>
</svg>
