<svg width="688" height="651" viewBox="0 0 688 651" fill="none" xmlns="http://www.w3.org/2000/svg">
<path d="M457.746 571.455C572.206 508.967 638.275 378.947 623.331 243.928C621.293 225.026 613.496 207.462 596.089 195.745C566.404 175.66 525.786 188.559 494.936 206.77C459.381 227.748 425.485 253.636 381.775 250.244C377.294 249.909 373.105 249.351 369.475 248.771C363.988 247.831 358.564 246.556 353.233 244.955C351.44 244.442 350.096 243.995 349.178 243.683L347.833 243.236H349.267L353.479 243.437C358.908 243.656 364.344 243.597 369.767 243.259C378.309 242.76 386.782 241.422 395.06 239.264L398.712 238.193L402.409 236.921C403.686 236.519 404.851 236.006 406.083 235.537L407.942 234.778L410.004 233.908C415.313 231.64 420.367 228.82 425.081 225.494C452.862 205.52 476.318 179.543 504.861 161.578C490.78 156.364 478.732 146.818 470.466 134.323C462.2 121.828 458.145 107.034 458.889 92.0883C459.634 77.1424 465.139 62.8215 474.607 51.2032C484.074 39.5848 497.011 31.2732 511.542 27.4743C526.072 23.6753 541.439 24.5865 555.414 30.0757C569.389 35.5649 581.245 45.3466 589.262 58.0017C597.279 70.6568 601.04 85.5272 600 100.455C598.959 115.384 593.171 129.594 583.475 141.024C637.468 146.09 677.929 191.036 685.726 246.606C685.905 247.901 686.062 249.195 686.218 250.512C692.693 308.536 680.169 367.499 656.13 420.413C588.919 568.286 433.46 679.292 266.306 644.611C179.291 626.579 103.185 569.112 50.3351 495.465C155.722 613.121 326.505 643.205 457.746 571.455Z" fill="white" fill-opacity="0.13"/>
<path d="M17.9029 204.034C36.5873 166.474 72.3186 136.314 113.949 129.738C121.12 128.61 128.381 128.139 135.639 128.334C126.395 113.045 122.243 95.2452 123.775 77.4731C125.308 59.701 132.446 42.8632 144.174 29.36C155.901 15.8568 171.619 6.37733 189.086 2.27296C206.553 -1.83141 224.878 -0.351223 241.449 6.50252C258.02 13.3563 271.991 25.2337 281.37 40.4418C290.749 55.6499 295.058 73.4124 293.683 91.1972C292.307 108.982 285.317 125.881 273.71 139.486C262.102 153.091 246.469 162.708 229.039 166.964C241.263 177.177 252.286 188.73 261.899 201.404C292.897 242.174 308.419 294.624 348.771 328.217C352.008 330.938 355.425 333.44 358.999 335.707C359.785 336.25 360.602 336.748 361.444 337.2L363.799 338.582C365.392 339.385 366.872 340.232 368.285 340.811C372.748 342.93 377.415 344.596 382.214 345.782C383.852 346.228 385.153 346.429 386.005 346.607L387.284 346.874H385.983C385.108 346.874 383.74 347.053 382.08 347.031C376.915 347.029 371.764 346.484 366.715 345.403C358.423 343.617 350.426 340.675 342.961 336.665C300.344 314.374 273.428 266.293 240.276 233.168C209.749 202.697 160.559 168.168 115.766 189.322C102.914 195.708 92.2646 205.749 85.1712 218.166C81.956 223.573 79.3102 229.295 77.2757 235.241C71.6009 252.472 58.3446 347.543 121.71 432.316C131.871 445.936 199.588 533.428 314.744 536.258C403.501 538.488 464.668 488.957 484.07 472.774C587.451 386.508 597.724 248.772 596.109 248.259C594.068 247.635 627.668 434.768 444.01 548.385C331.657 617.91 172.604 585.187 81.7842 489.604C39.3238 445.022 14.7403 386.575 3.79435 326.634C-3.67491 285.574 -0.691703 241.594 17.9029 204.034Z" fill="white" fill-opacity="0.13"/>
</svg>
