<svg width="104" height="95" viewBox="0 0 104 95" fill="none" xmlns="http://www.w3.org/2000/svg">
<path d="M27.5875 83.1615C26.1128 83.1615 25.4724 82.4261 25.4724 81.8527C25.4724 81.4873 25.7325 81.1892 26.202 81.1892C26.3827 81.1923 26.5615 81.227 26.7301 81.2916C26.7039 81.4106 26.6915 81.5322 26.6931 81.654C26.6935 81.7873 26.7059 81.9203 26.7301 82.0515C26.8424 82.6921 27.2104 82.9459 27.5875 82.9459C27.8362 82.9425 28.0741 82.844 28.2516 82.6709C28.429 82.4977 28.5325 82.2633 28.5404 82.0163C28.5415 81.9734 28.539 81.9304 28.5327 81.8879C28.3603 80.6801 25.7295 80.2856 25.4924 78.7658C25.4845 78.7055 25.4803 78.6447 25.4801 78.5839C25.4801 77.7124 26.4129 76.9724 27.743 76.9174H27.94C29.4132 76.9174 30.0536 77.6528 30.0536 78.2261C30.0536 78.5915 29.7935 78.8943 29.3255 78.8943C29.1457 78.8909 28.9679 78.8557 28.8005 78.7903C28.8226 78.6739 28.8334 78.5556 28.8329 78.4371C28.8327 78.2997 28.8203 78.1626 28.7959 78.0274C28.6836 77.3867 28.3156 77.136 27.94 77.136C27.6909 77.1394 27.4526 77.2381 27.2749 77.4115C27.0971 77.5849 26.9935 77.8198 26.9856 78.0671C26.9842 78.1096 26.9873 78.1521 26.9948 78.194C27.1657 79.4065 29.8581 79.8086 30.0382 81.3604C30.0382 81.4078 30.0459 81.4598 30.0459 81.5133C30.0459 82.3802 29.1084 83.1156 27.783 83.1676L27.5875 83.1615Z" fill="#04668E"/>
<path d="M33.2725 82.1264V77.9387C33.282 77.5703 33.2209 77.2034 33.0924 76.8577C33.3752 76.8934 33.6601 76.9117 33.9452 76.9128L37.4858 76.9051C37.1504 77.2714 36.9355 77.7307 36.87 78.2215C36.5252 77.6359 35.5646 77.139 34.7872 77.139C34.7529 77.355 34.7354 77.5733 34.7349 77.7919V79.7719H36.4837C36.3592 80.0267 36.2652 80.295 36.2035 80.5715C35.7269 80.3938 35.2325 80.2672 34.7287 80.1939V82.2701C34.7291 82.4888 34.7466 82.707 34.7811 82.923C35.5585 82.923 36.5191 82.4291 36.8639 81.8405C36.9294 82.3327 37.1442 82.7934 37.4796 83.1615H33.939C33.654 83.1612 33.3692 83.178 33.0862 83.212C33.2177 82.8653 33.2809 82.4968 33.2725 82.1264Z" fill="#04668E"/>
<path d="M41.6329 83.1539C41.3294 83.1513 41.026 83.1682 40.7247 83.2043C40.8532 82.8528 40.9143 82.4804 40.9048 82.1066V78.1451C40.9048 77.7353 40.8894 77.243 40.7247 76.9082H42.8706C44.6856 76.9082 45.5107 77.7996 45.5107 78.7704C45.5107 79.4783 45.0704 80.226 44.253 80.6953L44.9534 82.0714C45.1474 82.4727 45.3938 82.847 45.6862 83.1844C45.3413 83.16 45.0104 83.1493 44.6886 83.1493C44.3669 83.1493 44.0729 83.16 43.7881 83.1844C43.7146 82.7959 43.5822 82.4206 43.3956 82.0714L42.9491 81.1326C42.7529 81.1618 42.5548 81.1766 42.3565 81.177V82.1188C42.347 82.4887 42.4082 82.857 42.5366 83.2043C42.2368 83.1681 41.9349 83.1512 41.6329 83.1539ZM44.0129 78.6145C44.0129 77.8271 43.6434 77.1391 42.8152 77.1391H42.2903C42.2903 78.4111 42.2903 79.6847 42.2903 80.9492C43.3601 80.9186 44.0129 79.6725 44.0129 78.6145Z" fill="#04668E"/>
<path d="M51.3127 83.1569C50.1273 83.1569 49.9272 82.9108 49.5624 81.5668C49.2545 80.4003 48.9897 79.2322 48.6972 78.0656C48.6002 77.6956 48.4848 77.1314 48.1923 76.8608C48.4834 76.8961 48.7765 76.9134 49.0698 76.9128C49.3853 76.9128 49.6978 76.8929 50.0257 76.8608C49.9714 76.9818 49.9456 77.1136 49.9503 77.2461C49.9587 77.4986 50.0007 77.749 50.075 77.9907L51.1526 82.0561L52.4672 77.3026C52.4899 77.2224 52.5033 77.1398 52.5072 77.0565C52.5109 77.0256 52.5064 76.9943 52.4943 76.9656C52.4821 76.937 52.4627 76.9119 52.438 76.8929C52.575 76.9051 52.6997 76.9128 52.8228 76.9128C52.946 76.9128 53.0553 76.9051 53.183 76.8929C53.0899 77.0783 53.0097 77.2699 52.9429 77.4662L51.6252 82.2304C51.5791 82.4057 51.5537 82.5859 51.5497 82.767C51.5474 82.8998 51.5693 83.0319 51.6144 83.1569H51.3127Z" fill="#04668E"/>
<path d="M57.2055 83.1569C56.8968 83.1549 56.5883 83.1723 56.2818 83.2089C56.4137 82.8565 56.4764 82.4823 56.4666 82.1065V77.9586C56.4763 77.5833 56.4136 77.2096 56.2818 76.8577C56.5852 76.8938 56.8907 76.9106 57.1962 76.9082C57.4998 76.9107 57.8031 76.8939 58.1045 76.8577C57.9738 77.2029 57.9116 77.57 57.9213 77.9387V82.1264C57.9115 82.4956 57.9737 82.8632 58.1045 83.2089C57.8063 83.172 57.506 83.1547 57.2055 83.1569Z" fill="#04668E"/>
<path d="M63.7602 83.1569C61.9576 83.1569 61.0924 81.6494 61.0924 80.1144C61.0924 78.5273 62.0161 76.9128 63.8002 76.9128C65.2103 76.925 65.8784 77.7323 65.8784 78.3163C65.8784 78.6466 65.6629 78.9096 65.2411 78.9096C65.0599 78.903 64.8813 78.8652 64.7131 78.7979C64.7197 78.7386 64.7223 78.6788 64.7208 78.6191C64.7208 78.0427 64.473 77.1391 63.8126 77.1391C63.0305 77.1391 62.581 78.7032 62.581 80.2061C62.581 81.5821 62.9566 82.9062 63.7895 82.9261C64.4945 82.9261 64.7624 81.9674 64.7624 81.3971V81.2702C64.9331 81.2025 65.1143 81.1648 65.2981 81.1586C65.7075 81.1586 65.9138 81.4063 65.9138 81.7274C65.9184 82.3175 65.2134 83.1569 63.7602 83.1569Z" fill="#04668E"/>
<path d="M69.1296 82.1264V77.9387C69.1392 77.5703 69.078 77.2034 68.9495 76.8577C69.2324 76.8934 69.5172 76.9117 69.8023 76.9128L73.3429 76.9051C73.0075 77.2714 72.7927 77.7307 72.7272 78.2215C72.3824 77.6359 71.4218 77.139 70.6444 77.139C70.61 77.355 70.5925 77.5733 70.592 77.7919V79.7719H72.347C72.2225 80.0267 72.1285 80.295 72.0668 80.5715C71.5902 80.3938 71.0958 80.2672 70.592 80.1939V82.2701C70.5924 82.4888 70.6099 82.707 70.6444 82.923C71.4141 82.923 72.3824 82.4291 72.7272 81.8405C72.7927 82.3327 73.0075 82.7934 73.3429 83.1615H69.8023C69.5173 83.1612 69.2325 83.178 68.9495 83.212C69.0789 82.8649 69.14 82.4964 69.1296 82.1264Z" fill="#04668E"/>
<path d="M78.3752 83.1615C76.902 83.1615 76.2616 82.4261 76.2616 81.8527C76.2616 81.4873 76.5218 81.1892 76.9898 81.1892C77.1705 81.192 77.3493 81.2267 77.5178 81.2916C77.493 81.4108 77.4811 81.5323 77.4824 81.654C77.483 81.7872 77.4949 81.9202 77.5178 82.0515C77.6302 82.6921 77.9996 82.9459 78.3752 82.9459C78.624 82.9425 78.8618 82.844 79.0393 82.6709C79.2168 82.4977 79.3202 82.2633 79.3281 82.0163C79.3292 81.9734 79.3267 81.9304 79.3204 81.8879C79.148 80.6801 76.5172 80.2856 76.2816 78.7658C76.2729 78.7056 76.2688 78.6448 76.2693 78.5839C76.2693 77.7124 77.2022 76.9724 78.5322 76.9174H78.7277C80.2009 76.9174 80.8413 77.6528 80.8413 78.2261C80.8413 78.5915 80.5827 78.8943 80.1132 78.8943C79.9334 78.8907 79.7557 78.8555 79.5883 78.7903C79.6103 78.6739 79.6211 78.5556 79.6206 78.4371C79.6201 78.2998 79.6083 78.1627 79.5852 78.0274C79.4728 77.3867 79.1049 77.136 78.7277 77.136C78.4787 77.1394 78.2407 77.2382 78.0632 77.4116C77.8856 77.5851 77.7824 77.8199 77.7749 78.0671C77.7712 78.1093 77.7712 78.1518 77.7749 78.194C77.9473 79.4065 80.6381 79.8086 80.8182 81.3604C80.8182 81.4078 80.8259 81.4598 80.8259 81.5133C80.8259 82.3802 79.89 83.1156 78.5646 83.1676L78.3752 83.1615Z" fill="#04668E"/>
<path d="M9.71666 81.1448L20.1276 80.6265V79.6878L9.71666 81.1448Z" fill="#04668E"/>
<path d="M96.597 81.1448L86.1877 80.6265V79.6878L96.597 81.1448Z" fill="#04668E"/>
<path d="M11.1375 76.3853C10.572 76.5164 10.0156 76.684 9.4719 76.8868C9.4719 76.8868 9.62584 76.0673 9.31796 74.8319L7.44297 67.1704C7.34764 66.7869 7.21993 66.412 7.0612 66.0497C6.18221 66.6368 5.15697 67.545 4.92606 68.3431C4.58894 67.5007 4.28875 66.6888 3.48981 66.1445L8.21421 65.0101V65.0177L8.41895 64.9688V64.9611L13.1341 63.816C12.6723 64.6645 12.7847 65.5223 12.8817 66.4228C12.3013 65.8235 10.9713 65.484 9.91986 65.3678C9.94988 65.7927 10.0168 66.2142 10.12 66.6277L11.9673 74.1576C12.2751 75.4144 12.797 76.0887 12.797 76.0887C12.2377 76.15 11.6833 76.2491 11.1375 76.3853Z" fill="#30B996"/>
<path d="M16.0544 72.3933L14.8444 65.5406C14.6196 64.267 14.144 63.5606 14.144 63.5606C14.7121 63.5309 15.2777 63.465 15.8373 63.3634C16.4005 63.2705 16.9569 63.1408 17.5029 62.9751C17.5029 62.9751 17.3013 63.7839 17.5229 65.0345L18.736 71.9147C19.0131 73.4819 19.9352 74.1255 20.7218 73.9895C21.5084 73.8534 22.1473 72.936 21.8717 71.3689L20.6571 64.4887C20.437 63.238 19.9706 62.5454 19.9706 62.5454C20.5388 62.5168 21.1045 62.4509 21.6639 62.3482C22.2298 62.2554 22.7888 62.1251 23.3372 61.9583C23.3372 61.9583 23.131 62.7839 23.3557 64.0575L24.3933 69.9317L24.4764 70.3307C24.5103 70.5218 24.5441 70.713 24.5718 70.9133C24.852 72.7617 22.9108 74.0552 20.8065 74.4221C18.7021 74.7891 16.4238 74.2249 16.0544 72.3933Z" fill="#30B996"/>
<path d="M35.1074 72.4422V72.4498C32.6875 72.7357 31.7824 72.459 30.0074 70.0357L25.9788 64.4306L26.142 65.7883L26.1297 65.7516L26.9733 72.6669C27.0071 72.8886 27.0595 73.2586 27.3304 73.3687L25.945 73.5338C25.9813 73.1828 25.987 72.8293 25.9619 72.4774L24.8951 63.498C24.8104 62.9215 24.6134 62.2901 24.2239 61.8238C24.6857 61.8238 25.1152 61.7947 25.5416 61.7596L25.945 61.7106C26.5149 61.6447 27.0803 61.5451 27.6383 61.4125C27.6299 61.4826 27.6299 61.5534 27.6383 61.6235C27.6876 62.0394 27.9862 62.6356 28.5835 63.446L33.4049 70.0708L32.3827 61.5975C32.3473 61.3758 32.2965 61.0058 32.0179 60.9034L33.4033 60.7398C33.3709 61.0875 33.3673 61.4372 33.3926 61.7855L34.4701 70.7649C34.5328 71.3754 34.7628 71.9571 35.1352 72.4468L35.1074 72.4422Z" fill="#30B996"/>
<path d="M35.4908 72.5049C36.0067 71.8317 36.4283 71.0921 36.7438 70.3063C37.8532 67.6561 38.9611 65.0121 40.0674 62.3742C40.2969 61.857 40.4692 61.3167 40.5815 60.7627L39.8226 60.8101C38.3663 60.9034 36.6238 61.943 36.0496 63.0882C35.8648 62.1727 35.4035 61.3348 34.7272 60.6863L42.1671 60.2276C42.7969 60.1881 43.424 60.1131 44.0452 60.0028C43.5303 60.6762 43.1098 61.4158 42.7952 62.2014L39.4686 70.132C39.242 70.6495 39.0722 71.1898 38.9621 71.7435L39.7195 71.6961C41.1696 71.6028 42.9183 70.5631 43.4848 69.4195C43.6738 70.3334 44.1351 71.1697 44.8087 71.8199L37.181 72.3C36.6141 72.3355 36.0497 72.4039 35.4908 72.5049Z" fill="#30B996"/>
<path d="M44.9673 71.8276C45.1483 71.4888 45.3027 71.1366 45.4291 70.7741L48.2416 61.5348C48.2901 61.3648 48.3124 61.1885 48.3078 61.0119C48.2938 60.6555 48.2247 60.3033 48.103 59.9677C48.2754 60.0223 48.4566 60.0446 48.6372 60.0334H48.7049C51.1433 59.9936 51.6159 60.3591 52.3656 62.9705L54.2375 69.6442C54.436 70.356 54.7417 71.0338 55.1442 71.6548L51.7883 71.7098C51.7883 71.6273 51.7991 71.508 51.7976 71.3505C51.7817 70.7861 51.6864 70.2267 51.5143 69.6886L51.0817 68.1107L47.1917 68.1749L46.3219 71.0661C46.2743 71.2148 46.2464 71.369 46.2388 71.5248C46.2336 71.5792 46.2431 71.6339 46.2664 71.6834C46.2897 71.7329 46.3259 71.7753 46.3712 71.8061L44.9673 71.8276ZM49.2206 61.4217L47.3225 67.7392L50.9571 67.6796L49.2206 61.4217Z" fill="#30B996"/>
<path d="M65.0795 72.2236C61.702 71.9805 60.2889 69.0388 60.4998 66.1629C60.7168 63.1891 62.6719 60.2887 66.0108 60.5303C68.6509 60.7428 69.7931 62.3467 69.7054 63.4353C69.6607 64.0545 69.2204 64.5162 68.4323 64.4596C68.093 64.4236 67.7627 64.3289 67.4563 64.1799C67.4774 64.0693 67.4907 63.9574 67.4963 63.845C67.5748 62.7641 67.2346 61.0394 65.9954 60.9492C64.533 60.8437 63.4862 63.712 63.2799 66.5298C63.0906 69.1076 63.614 71.641 65.1718 71.7909C66.4926 71.8857 67.1269 70.1259 67.2038 69.0602L67.2146 68.8217C67.5443 68.7179 67.8897 68.6719 68.2352 68.6856C69.0049 68.7406 69.3575 69.2314 69.3128 69.8354C69.2374 70.9423 67.8027 72.4208 65.0795 72.2236Z" fill="#30B996"/>
<path d="M69.2127 72.5003C69.4386 72.1898 69.6403 71.8627 69.8162 71.5218L73.9279 62.7763C74.0014 62.6149 74.0492 62.4431 74.0695 62.2672C74.1076 61.9129 74.0899 61.5549 74.0172 61.2061C74.1801 61.2839 74.3559 61.3315 74.536 61.3467L74.6037 61.3559C77.0221 61.6617 77.4377 62.0913 77.8041 64.7822L78.697 71.6533C78.7907 72.3856 78.9958 73.0995 79.305 73.7708L75.9753 73.3488C75.9938 73.2693 76.0169 73.1516 76.0369 72.9957C76.102 72.4359 76.088 71.8698 75.9953 71.3138L75.7937 69.6901L71.9359 69.1993L70.6582 71.9376C70.587 72.0768 70.5352 72.2249 70.5043 72.378C70.4911 72.4312 70.4926 72.4869 70.5086 72.5394C70.5246 72.5918 70.5545 72.6391 70.5951 72.6761L69.2127 72.5003ZM74.9177 62.8038L72.133 68.7865L75.7367 69.2452L74.9177 62.8038Z" fill="#30B996"/>
<path d="M81.1261 74.1057C80.5667 73.9999 80.0011 73.9295 79.4328 73.8947C79.4328 73.8947 79.9069 73.1914 80.1409 71.9269L81.5094 64.611C81.6495 63.8542 81.7881 62.9368 81.5987 62.2641L85.5642 62.9919C88.917 63.6034 90.1362 65.5268 89.8052 67.3203C89.5635 68.629 88.4937 69.8629 86.8234 70.4546L87.647 73.2357C87.8683 74.0434 88.196 74.8187 88.6214 75.5413C87.9934 75.3813 87.3832 75.2473 86.7911 75.1392C86.1989 75.0312 85.6396 74.9517 85.1132 74.9007C85.1393 74.6393 85.0839 73.8167 84.7699 72.7113L84.2557 70.8169C83.8828 70.8046 83.5113 70.7647 83.1443 70.6977L82.8195 72.4391C82.5885 73.6883 82.7825 74.5062 82.7825 74.5062C82.2396 74.3375 81.6863 74.2037 81.1261 74.1057ZM87.0713 66.5222C87.3407 65.0666 86.8942 63.6707 85.3625 63.3924L84.3943 63.2151V63.2227C83.9586 65.5742 83.5245 67.9257 83.0842 70.2558C85.0824 70.557 86.7141 68.4777 87.0759 66.5222H87.0713Z" fill="#30B996"/>
<path d="M89.8391 73.78L91.6864 66.1354C91.9835 64.9 91.8326 64.0805 91.8326 64.0805C92.3351 64.2698 92.8493 64.4271 93.372 64.5514L99.8375 66.0711C99.0601 66.5946 98.4623 67.3414 98.1241 68.2116C97.7531 66.9885 96.2153 65.669 94.7959 65.3327C94.6386 65.7117 94.511 66.1022 94.4142 66.5008L93.5429 70.1197L96.7479 70.8842C96.4086 71.2953 96.1188 71.7442 95.8843 72.222C95.0922 71.6912 94.2454 71.2458 93.3582 70.8934L92.4453 74.6851C92.3493 75.0847 92.285 75.4911 92.2529 75.9006C93.6722 76.237 95.6395 75.7477 96.5324 74.8304C96.4379 75.7595 96.6313 76.6951 97.0866 77.5121L90.6303 75.9633C90.1098 75.8381 89.5817 75.7462 89.0494 75.6881C89.0494 75.6881 89.5435 75.0077 89.8391 73.78Z" fill="#30B996"/>
<path d="M25.9619 88.0556C25.7999 87.9694 25.665 87.8403 25.5724 87.6826C25.4799 87.5192 25.4313 87.3349 25.4313 87.1474C25.4313 86.96 25.4799 86.7757 25.5724 86.6123C25.666 86.4548 25.8013 86.3258 25.9634 86.2392C26.1346 86.1477 26.3263 86.1008 26.5207 86.1032C26.6719 86.1016 26.8219 86.1291 26.9625 86.1842C27.0926 86.2365 27.2089 86.3176 27.3027 86.4212L27.1118 86.6062C27.038 86.5275 26.9483 86.4652 26.8485 86.4233C26.7488 86.3814 26.6413 86.3609 26.533 86.3631C26.3884 86.3609 26.2456 86.3962 26.1189 86.4655C25.9984 86.5313 25.8983 86.6286 25.8295 86.7468C25.7609 86.8696 25.7249 87.0078 25.7249 87.1482C25.7249 87.2886 25.7609 87.4267 25.8295 87.5495C25.8979 87.6681 25.9981 87.7656 26.1189 87.8309C26.2456 87.9002 26.3884 87.9355 26.533 87.9333C26.6414 87.9353 26.749 87.9145 26.8487 87.8724C26.9485 87.8302 27.0381 87.7676 27.1118 87.6887L27.3027 87.8721C27.2088 87.9771 27.0919 88.0592 26.961 88.1122C26.8203 88.1671 26.6703 88.1947 26.5192 88.1932C26.3245 88.1962 26.1325 88.1488 25.9619 88.0556Z" fill="#30B996"/>
<path d="M29.2223 88.0556C29.0596 87.9685 28.9239 87.839 28.8298 87.681C28.7352 87.5183 28.6854 87.3338 28.6854 87.1459C28.6854 86.958 28.7352 86.7735 28.8298 86.6108C28.9239 86.4528 29.0596 86.3233 29.2223 86.2362C29.3951 86.1468 29.5871 86.1002 29.7819 86.1002C29.9767 86.1002 30.1687 86.1468 30.3415 86.2362C30.5037 86.3228 30.6389 86.4518 30.7325 86.6092C30.825 86.7726 30.8736 86.9569 30.8736 87.1444C30.8736 87.3318 30.825 87.5161 30.7325 87.6795C30.6393 87.8373 30.504 87.9664 30.3415 88.0525C30.1687 88.1419 29.9767 88.1886 29.7819 88.1886C29.5871 88.1886 29.3951 88.1419 29.2223 88.0525V88.0556ZM30.1906 87.8293C30.3095 87.763 30.4079 87.6657 30.4754 87.548C30.544 87.4252 30.58 87.2871 30.58 87.1467C30.58 87.0062 30.544 86.8681 30.4754 86.7453C30.4072 86.6282 30.3089 86.5311 30.1906 86.464C30.0662 86.3945 29.9254 86.3591 29.7827 86.3616C29.6395 86.3595 29.4983 86.3948 29.3732 86.464C29.2534 86.5302 29.1539 86.6274 29.0853 86.7453C29.0167 86.8681 28.9807 87.0062 28.9807 87.1467C28.9807 87.2871 29.0167 87.4252 29.0853 87.548C29.1535 87.6662 29.2531 87.7635 29.3732 87.8293C29.4983 87.8985 29.6395 87.9338 29.7827 87.9318C29.9254 87.9342 30.0662 87.8989 30.1906 87.8293Z" fill="#30B996"/>
<path d="M34.4055 88.1687V86.6796L33.6635 87.9211H33.528L32.7891 86.6903V88.1703H32.5059V86.1261H32.7476L33.605 87.5618L34.4517 86.1261H34.6934V88.1687H34.4055Z" fill="#30B996"/>
<path d="M37.9122 86.3157C37.9845 86.3824 38.0422 86.4632 38.0817 86.553C38.1211 86.6428 38.1415 86.7398 38.1415 86.8378C38.1415 86.9358 38.1211 87.0328 38.0817 87.1226C38.0422 87.2125 37.9845 87.2933 37.9122 87.36C37.7318 87.4956 37.5085 87.5629 37.2826 87.5495H36.7746V88.1611H36.4837V86.1261H37.2857C37.5106 86.1135 37.7326 86.1807 37.9122 86.3157ZM37.7013 87.178C37.7476 87.134 37.7844 87.0812 37.8095 87.0228C37.8347 86.9643 37.8476 86.9014 37.8476 86.8378C37.8476 86.7743 37.8347 86.7113 37.8095 86.6529C37.7844 86.5944 37.7476 86.5416 37.7013 86.4976C37.5771 86.4108 37.4265 86.3693 37.2749 86.3799H36.7746V87.2973H37.2749C37.4266 87.3067 37.5769 87.2647 37.7013 87.178Z" fill="#30B996"/>
<path d="M40.9571 87.6581H39.8703L39.644 88.1687H39.3362L40.2598 86.1261H40.5508L41.4852 88.1687H41.1773L40.9571 87.6581ZM40.854 87.4242L40.4107 86.4227L39.9658 87.4242H40.854Z" fill="#30B996"/>
<path d="M43.1246 88.1198C42.9992 88.0831 42.8832 88.02 42.7844 87.9348L42.8937 87.707C42.984 87.7837 43.0886 87.8419 43.2016 87.8783C43.3224 87.9222 43.4501 87.9444 43.5787 87.944C43.7117 87.9528 43.8443 87.9231 43.9605 87.8584C43.9996 87.8342 44.0318 87.8003 44.0539 87.7602C44.076 87.72 44.0874 87.6748 44.0867 87.629C44.088 87.5973 44.0824 87.5656 44.0705 87.5361C44.0585 87.5066 44.0405 87.4799 44.0175 87.4578C43.969 87.4124 43.9112 87.378 43.8481 87.3569C43.7804 87.3339 43.685 87.308 43.5603 87.2789C43.4334 87.2491 43.3085 87.2119 43.1862 87.1673C43.0918 87.1317 43.008 87.0728 42.943 86.9961C42.873 86.9097 42.8369 86.801 42.8414 86.6903C42.8405 86.5857 42.8705 86.4831 42.9276 86.3952C42.9934 86.3019 43.0848 86.2292 43.1908 86.1857C43.3291 86.1284 43.4782 86.1013 43.628 86.1062C43.7492 86.1059 43.8698 86.1218 43.9867 86.1536C44.0968 86.1791 44.2012 86.2248 44.2946 86.2882L44.1976 86.5206C44.1113 86.467 44.0181 86.4254 43.9205 86.3967C43.8269 86.3697 43.73 86.3558 43.6326 86.3554C43.5015 86.3458 43.3706 86.3773 43.2585 86.4456C43.2199 86.4709 43.1882 86.5055 43.1664 86.5461C43.1446 86.5867 43.1334 86.632 43.1339 86.678C43.1326 86.71 43.1383 86.7417 43.1505 86.7713C43.1628 86.8008 43.1812 86.8274 43.2047 86.8493C43.2546 86.8954 43.3139 86.9304 43.3786 86.9517C43.4716 86.9826 43.5661 87.0087 43.6619 87.0297C43.7889 87.0579 43.9139 87.0947 44.0359 87.1398C44.1292 87.176 44.2122 87.2342 44.2776 87.3095C44.349 87.3951 44.3853 87.5043 44.3792 87.6153C44.38 87.7196 44.3495 87.8218 44.2915 87.9088C44.2251 88.0038 44.1319 88.0772 44.0236 88.1198C43.8835 88.1744 43.7338 88.2004 43.5834 88.1963C43.4272 88.197 43.272 88.1712 43.1246 88.1198Z" fill="#30B996"/>
<path d="M46.1249 88.1198C45.9995 88.0831 45.8834 88.02 45.7847 87.9348L45.894 87.707C45.9843 87.7837 46.0889 87.8419 46.2019 87.8783C46.3227 87.9222 46.4504 87.9444 46.579 87.944C46.7119 87.9528 46.8446 87.9231 46.9608 87.8584C46.9999 87.8342 47.0321 87.8003 47.0542 87.7602C47.0763 87.72 47.0876 87.6748 47.087 87.629C47.0882 87.5973 47.0827 87.5656 47.0708 87.5361C47.0588 87.5066 47.0408 87.4799 47.0178 87.4578C46.9693 87.4124 46.9115 87.378 46.8484 87.3569C46.7807 87.3339 46.6852 87.308 46.5606 87.2789C46.4337 87.2491 46.3088 87.2119 46.1865 87.1673C46.0923 87.1313 46.0086 87.0724 45.9433 86.9961C45.8733 86.9097 45.8372 86.801 45.8417 86.6903C45.8408 86.5857 45.8708 86.4831 45.9279 86.3952C45.9937 86.3019 46.085 86.2292 46.1911 86.1857C46.3294 86.1284 46.4785 86.1013 46.6283 86.1062C46.7494 86.1059 46.8701 86.1218 46.987 86.1536C47.0971 86.1791 47.2015 86.2248 47.2948 86.2882L47.1979 86.5206C47.1116 86.467 47.0184 86.4254 46.9208 86.3967C46.8272 86.3697 46.7303 86.3558 46.6329 86.3554C46.5018 86.3458 46.3709 86.3773 46.2588 86.4456C46.2201 86.4709 46.1885 86.5055 46.1667 86.5461C46.1449 86.5867 46.1337 86.632 46.1341 86.678C46.1329 86.71 46.1386 86.7417 46.1508 86.7713C46.163 86.8008 46.1815 86.8274 46.205 86.8493C46.2549 86.8954 46.3142 86.9304 46.3789 86.9517C46.4719 86.9826 46.5664 87.0087 46.6622 87.0297C46.7892 87.0579 46.9142 87.0947 47.0362 87.1398C47.1295 87.176 47.2124 87.2342 47.2779 87.3095C47.3493 87.3951 47.3856 87.5043 47.3795 87.6153C47.3803 87.7196 47.3498 87.8218 47.2918 87.9088C47.2254 88.0038 47.1322 88.0772 47.0239 88.1198C46.8838 88.1744 46.7341 88.2004 46.5836 88.1963C46.4275 88.197 46.2723 88.1712 46.1249 88.1198Z" fill="#30B996"/>
<path d="M48.9743 86.1261H49.2607V88.1687H48.9682L48.9743 86.1261Z" fill="#30B996"/>
<path d="M51.4281 88.0556C51.2651 87.969 51.1292 87.8394 51.0356 87.681C50.941 87.5183 50.8912 87.3338 50.8912 87.1459C50.8912 86.958 50.941 86.7735 51.0356 86.6108C51.1292 86.4524 51.2651 86.3228 51.4281 86.2362C51.6009 86.1468 51.7929 86.1002 51.9877 86.1002C52.1825 86.1002 52.3745 86.1468 52.5473 86.2362C52.7094 86.3228 52.8447 86.4518 52.9383 86.6092C53.0308 86.7726 53.0794 86.9569 53.0794 87.1444C53.0794 87.3318 53.0308 87.5161 52.9383 87.6795C52.8451 87.8373 52.7098 87.9664 52.5473 88.0525C52.3745 88.1419 52.1825 88.1886 51.9877 88.1886C51.7929 88.1886 51.6009 88.1419 51.4281 88.0525V88.0556ZM52.3964 87.8293C52.5153 87.763 52.6137 87.6657 52.6812 87.548C52.7498 87.4252 52.7858 87.2871 52.7858 87.1467C52.7858 87.0062 52.7498 86.8681 52.6812 86.7453C52.613 86.6282 52.5147 86.5311 52.3964 86.464C52.2719 86.3947 52.1312 86.3593 51.9885 86.3616C51.8453 86.3595 51.7041 86.3948 51.579 86.464C51.4592 86.5302 51.3597 86.6274 51.2911 86.7453C51.2225 86.8681 51.1865 87.0062 51.1865 87.1467C51.1865 87.2871 51.2225 87.4252 51.2911 87.548C51.3593 87.6662 51.4589 87.7635 51.579 87.8293C51.7041 87.8985 51.8453 87.9338 51.9885 87.9318C52.1312 87.934 52.2719 87.8987 52.3964 87.8293Z" fill="#30B996"/>
<path d="M56.4743 86.1261V88.1687H56.2326L55.0011 86.6398V88.1687H54.707V86.1261H54.9487L56.1802 87.655V86.1261H56.4743Z" fill="#30B996"/>
<path d="M59.5746 87.6581H58.4801L58.2538 88.1687H57.9459L58.8695 86.1261H59.1605L60.0949 88.1687H59.787L59.5746 87.6581ZM59.4714 87.4242L59.0266 86.4227L58.5832 87.4242H59.4714Z" fill="#30B996"/>
<path d="M61.8991 86.3845H61.194V86.1307H62.8951V86.3845H62.1916V88.1733H61.8991V86.3845Z" fill="#30B996"/>
<path d="M65.8861 87.9134V88.1672H64.3944V86.1261H65.8461V86.3845H64.6869V87.0113H65.7199V87.259H64.6869V87.9134H65.8861Z" fill="#30B996"/>
<path d="M69.8639 88.0556C69.7022 87.969 69.5674 87.84 69.4744 87.6826C69.3829 87.5188 69.3349 87.3347 69.3349 87.1474C69.3349 86.9602 69.3829 86.776 69.4744 86.6123C69.568 86.4548 69.7033 86.3258 69.8655 86.2392C70.0371 86.1475 70.2294 86.1006 70.4243 86.1032C70.5749 86.1016 70.7244 86.1291 70.8645 86.1842C70.9954 86.2358 71.1124 86.317 71.2063 86.4212L71.0154 86.6062C70.9415 86.5275 70.8518 86.4652 70.7521 86.4233C70.6524 86.3814 70.5448 86.3609 70.4366 86.3631C70.2914 86.3608 70.1482 86.3961 70.0209 86.4655C69.9009 86.532 69.801 86.6291 69.7315 86.7469C69.6639 86.87 69.6284 87.008 69.6284 87.1482C69.6284 87.2884 69.6639 87.4264 69.7315 87.5495C69.8003 87.6678 69.9004 87.7651 70.0209 87.8309C70.1482 87.9003 70.2914 87.9356 70.4366 87.9333C70.545 87.9353 70.6525 87.9146 70.7523 87.8724C70.852 87.8302 70.9417 87.7676 71.0154 87.6887L71.2063 87.8721C71.1119 87.9773 70.9944 88.0594 70.863 88.1122C70.7223 88.1671 70.5723 88.1947 70.4212 88.1932C70.2266 88.1961 70.0345 88.1486 69.8639 88.0556Z" fill="#30B996"/>
<path d="M74.0618 87.6581H72.9673L72.741 88.1687H72.4332L73.366 86.1261H73.657L74.5914 88.1687H74.2835L74.0618 87.6581ZM73.9587 87.4242L73.5154 86.4227L73.072 87.4242H73.9587Z" fill="#30B996"/>
<path d="M77.4531 88.1687L77.0098 87.5404C76.9559 87.5404 76.9128 87.5404 76.8805 87.5404H76.3725V88.1626H76.0784V86.1261H76.8805C77.1063 86.1132 77.3295 86.1804 77.5101 86.3157C77.587 86.3798 77.6478 86.4609 77.6877 86.5525C77.7275 86.644 77.7452 86.7436 77.7395 86.8432C77.7433 86.9867 77.7019 87.1278 77.6209 87.2468C77.5381 87.3604 77.4212 87.445 77.2869 87.4884L77.7733 88.1749L77.4531 88.1687ZM77.2992 87.1795C77.3501 87.1384 77.3905 87.086 77.4172 87.0265C77.444 86.967 77.4563 86.9021 77.4531 86.8371C77.4563 86.7724 77.444 86.708 77.4172 86.649C77.3905 86.59 77.35 86.5381 77.2992 86.4976C77.175 86.4106 77.0243 86.369 76.8728 86.3799H76.374V87.2973H76.8728C77.0238 87.3078 77.1739 87.2662 77.2976 87.1795H77.2992Z" fill="#30B996"/>
<path d="M80.8829 87.9134V88.1672H79.3912V86.1261H80.8429V86.3845H79.6837V87.0113H80.7166V87.259H79.6837V87.9134H80.8829Z" fill="#30B996"/>
<path d="M59.436 47.3739C67.3008 43.0929 71.8405 34.1853 70.8137 24.9353C70.6736 23.6403 70.1379 22.437 68.9418 21.6343C66.9021 20.2583 64.1112 21.142 61.9914 22.3896C59.5484 23.8268 57.2193 25.6004 54.216 25.368C53.9081 25.3451 53.6202 25.3068 53.3708 25.2671C52.9938 25.2026 52.6211 25.1153 52.2548 25.0056C52.1316 24.9705 52.0392 24.9399 51.9761 24.9185L51.8838 24.8879H51.9823L52.2717 24.9017C52.6447 24.9167 53.0182 24.9126 53.3908 24.8894C53.9778 24.8553 54.56 24.7636 55.1288 24.6158L55.3797 24.5424L55.6337 24.4552C55.7215 24.4277 55.8015 24.3925 55.8862 24.3604L56.014 24.3084L56.1556 24.2488C56.5204 24.0935 56.8677 23.9003 57.1916 23.6724C59.1005 22.304 60.7122 20.5243 62.6734 19.2936C61.7058 18.9364 60.878 18.2824 60.3101 17.4263C59.7421 16.5703 59.4634 15.5568 59.5146 14.5329C59.5658 13.509 59.9441 12.5279 60.5946 11.7319C61.2451 10.9359 62.1341 10.3665 63.1324 10.1063C64.1308 9.84599 65.1867 9.90841 66.147 10.2845C67.1072 10.6605 67.9219 11.3307 68.4728 12.1977C69.0236 13.0646 69.2821 14.0834 69.2106 15.1061C69.1391 16.1288 68.7413 17.1024 68.0751 17.8854C71.7851 18.2325 74.5652 21.3117 75.1009 25.1188C75.1132 25.2075 75.124 25.2961 75.1348 25.3863C75.5797 29.3616 74.7192 33.401 73.0674 37.0261C68.4492 47.1568 57.7673 54.7617 46.2819 52.3857C40.3029 51.1503 35.0736 47.2133 31.4421 42.1679C38.6835 50.2284 50.4183 52.2894 59.436 47.3739Z" fill="#04668E"/>
<path d="M29.2932 22.1588C30.5755 19.5825 33.0277 17.5139 35.8848 17.0628C36.377 16.9854 36.8753 16.9532 37.3734 16.9665C36.739 15.9178 36.454 14.697 36.5592 13.478C36.6644 12.259 37.1543 11.1041 37.9592 10.1779C38.7641 9.25176 39.8428 8.60157 41.0415 8.32005C42.2403 8.03853 43.498 8.14006 44.6352 8.61015C45.7725 9.08025 46.7313 9.89492 47.375 10.938C48.0187 11.9812 48.3144 13.1995 48.22 14.4193C48.1256 15.6392 47.6459 16.7983 46.8493 17.7315C46.0526 18.6646 44.9797 19.3242 43.7835 19.6162C44.6225 20.3166 45.379 21.1091 46.0387 21.9784C48.1661 24.7748 49.2314 28.3723 52.0008 30.6764C52.2229 30.863 52.4575 31.0347 52.7027 31.1902C52.7567 31.2274 52.8127 31.2616 52.8705 31.2926L53.0322 31.3874C53.1415 31.4424 53.2431 31.5005 53.34 31.5403C53.6463 31.6856 53.9666 31.7998 54.296 31.8812C54.4084 31.9118 54.4977 31.9256 54.5562 31.9378L54.6439 31.9561H54.5546C54.4946 31.9561 54.4007 31.9684 54.2868 31.9668C53.9323 31.9667 53.5788 31.9293 53.2323 31.8552C52.6632 31.7327 52.1144 31.5309 51.6021 31.2559C48.6772 29.727 46.8299 26.4291 44.5547 24.1571C42.4596 22.067 39.0837 19.6987 36.0095 21.1497C35.1275 21.5877 34.3966 22.2764 33.9098 23.1281C33.6891 23.499 33.5076 23.8914 33.3679 24.2993C32.9785 25.4811 32.0687 32.002 36.4175 37.8165C37.1148 38.7507 41.7623 44.7518 49.6655 44.9459C55.7569 45.0988 59.9548 41.7015 61.2864 40.5915C68.3815 34.6746 69.0865 25.2273 68.9757 25.1922C68.8356 25.1494 71.1416 37.9847 58.537 45.7777C50.8262 50.5464 39.9104 48.3019 33.6774 41.7459C30.7633 38.688 29.0761 34.6792 28.3249 30.5679C27.8123 27.7516 28.017 24.735 29.2932 22.1588Z" fill="#30B996"/>
</svg>
