<svg width="57" height="57" viewBox="0 0 57 57" fill="none" xmlns="http://www.w3.org/2000/svg">
<g id="wheelchair" clip-path="url(#clip0_10_196)">
<path id="Vector" d="M2.74476 -0.0323629C2.88852 -0.0334846 2.88852 -0.0334846 3.03518 -0.034629C3.35157 -0.0367412 3.66792 -0.0371789 3.98431 -0.0374184C4.20522 -0.0381343 4.42614 -0.0388833 4.64705 -0.0396641C5.11029 -0.040997 5.57352 -0.0414098 6.03676 -0.0412779C6.62782 -0.0412553 7.21883 -0.0442889 7.80987 -0.0481295C8.26642 -0.0506167 8.72295 -0.0510564 9.17951 -0.050939C9.39725 -0.0512003 9.61499 -0.052177 9.83273 -0.0539075C11.4428 -0.0655018 12.6775 0.00204873 13.8903 1.17632C14.8691 2.2442 15.0636 3.15934 15.0546 4.57397C15.0546 4.70765 15.0546 4.84132 15.0547 4.97904C15.0545 5.34357 15.0534 5.70808 15.0519 6.0726C15.0505 6.4543 15.0503 6.836 15.0501 7.21771C15.0494 7.93961 15.0476 8.66151 15.0453 9.38341C15.0428 10.2056 15.0416 11.0279 15.0405 11.8501C15.0382 13.5407 15.0342 15.2313 15.0293 16.9219C15.5804 16.8851 16.1314 16.8484 16.6992 16.8105C16.752 16.6314 16.8048 16.4523 16.8592 16.2678C17.2557 15.1832 18.1149 14.3163 19.1484 13.8047C19.8041 13.5738 20.3986 13.549 21.0903 13.5497C21.2046 13.5489 21.3189 13.5482 21.4367 13.5474C21.8133 13.5453 22.1899 13.5449 22.5665 13.5446C22.8296 13.5439 23.0926 13.5431 23.3556 13.5424C23.9066 13.541 24.4576 13.5406 25.0086 13.5408C25.7125 13.5408 26.4163 13.5377 27.1202 13.5339C27.6634 13.5314 28.2067 13.531 28.75 13.5311C29.0093 13.5308 29.2687 13.5299 29.5281 13.5281C29.892 13.5259 30.2558 13.5266 30.6197 13.5279C30.7254 13.5267 30.8312 13.5254 30.9402 13.5241C32.1449 13.5353 33.0683 13.9246 33.9298 14.7588C34.4183 15.2918 34.7954 15.8076 34.9779 16.5113C35.042 16.7369 35.042 16.7369 35.1797 16.9219C35.4706 17.0588 35.7643 17.1439 36.072 17.2367C36.9927 17.5982 37.7523 18.4959 38.1855 19.3711C38.4418 20.0739 38.4383 20.7326 38.4335 21.4754C38.4335 21.6069 38.4335 21.7384 38.4336 21.8739C38.4334 22.2324 38.4323 22.591 38.4308 22.9495C38.4294 23.325 38.4292 23.7004 38.429 24.0759C38.4283 24.786 38.4265 25.496 38.4242 26.2061C38.4217 27.0149 38.4205 27.8237 38.4194 28.6325C38.4171 30.2953 38.4132 31.9582 38.4082 33.6211C38.5327 33.6182 38.6572 33.6152 38.7856 33.6122C39.2536 33.6021 39.7217 33.5957 40.1898 33.5905C40.3913 33.5877 40.5928 33.5839 40.7942 33.5791C42.2535 33.5448 43.4242 33.6264 44.6217 34.5604C45.8146 35.7227 46.0816 37.3661 46.3816 38.9309C46.4253 39.1498 46.4691 39.3686 46.5131 39.5875C46.6273 40.1583 46.7387 40.7296 46.8496 41.3011C46.9409 41.7689 47.0342 42.2363 47.1276 42.7037C47.2391 43.262 47.3498 43.8205 47.4601 44.379C47.4811 44.4852 47.5021 44.5914 47.5238 44.7007C47.5828 45.0003 47.6413 45.3 47.6995 45.5998C47.717 45.6884 47.7345 45.777 47.7526 45.8683C47.8259 46.249 47.8711 46.591 47.8711 46.9805C47.9612 46.9795 48.0512 46.9785 48.144 46.9775C48.9957 46.9685 49.8473 46.9617 50.699 46.9574C51.1368 46.9551 51.5745 46.9519 52.0123 46.9469C52.4353 46.942 52.8583 46.9394 53.2813 46.9382C53.4421 46.9374 53.603 46.9358 53.7638 46.9334C54.7648 46.9189 55.5421 46.9363 56.3346 47.6202C56.3843 47.6823 56.4339 47.7444 56.4851 47.8085C56.5365 47.8703 56.5878 47.9322 56.6408 47.9959C57.0931 48.6888 57.0767 49.4066 57 50.209C56.8136 50.8987 56.3666 51.3816 55.7754 51.7676C55.3177 51.9902 54.9418 52.0189 54.4353 52.0208C54.3203 52.0216 54.3203 52.0217 54.203 52.0225C53.951 52.0241 53.6991 52.024 53.4471 52.0237C53.2714 52.0241 53.0958 52.0246 52.9202 52.0252C52.5528 52.026 52.1854 52.026 51.818 52.0254C51.3469 52.0247 50.8759 52.0266 50.4048 52.0292C50.0425 52.0308 49.6801 52.0309 49.3178 52.0306C49.144 52.0306 48.9703 52.0312 48.7966 52.0323C48.5541 52.0337 48.3116 52.033 48.0691 52.0317C47.9311 52.0317 47.7931 52.0318 47.6509 52.0319C47.3144 51.9902 47.3144 51.9902 47.1096 51.8564C46.945 51.6014 46.8913 51.3823 46.8306 51.0846C46.8058 50.966 46.7809 50.8475 46.7554 50.7253C46.7295 50.5951 46.7036 50.4649 46.6769 50.3307C46.6486 50.1936 46.6203 50.0565 46.5912 49.9152C46.5132 49.5366 46.4368 49.1578 46.3608 48.7789C46.2956 48.4551 46.2295 48.1316 46.1633 47.8081C45.972 46.8721 45.7835 45.9356 45.5962 44.9988C45.5075 44.5556 45.4183 44.1125 45.3289 43.6694C45.2593 43.3237 45.1901 42.978 45.1209 42.6322C45.0881 42.4685 45.0552 42.3048 45.0221 42.1411C44.9765 41.915 44.9313 41.6888 44.8864 41.4625C44.8607 41.3345 44.835 41.2064 44.8086 41.0745C44.7539 40.7461 44.7539 40.7461 44.7539 40.3008C42.6598 40.3008 40.5657 40.3008 38.4082 40.3008C38.4082 41.2927 38.4082 42.2846 38.4082 43.3066C38.0742 43.6406 38.0742 43.6406 37.8342 43.685C37.748 43.6841 37.6619 43.6832 37.5732 43.6824C37.4871 43.6832 37.401 43.6841 37.3123 43.685C37.002 43.6276 36.9238 43.5621 36.7383 43.3066C36.6981 42.9622 36.6981 42.9622 36.7004 42.5329C36.7003 42.4547 36.7003 42.3764 36.7002 42.2958C36.7004 42.0374 36.703 41.779 36.7057 41.5206C36.7063 41.3414 36.7067 41.1621 36.7071 40.9829C36.7084 40.5112 36.7116 40.0396 36.7153 39.568C36.7194 39.002 36.7209 38.4361 36.7228 37.8701C36.7261 37.0104 36.7325 36.1507 36.7383 35.291C34.7544 35.291 32.7705 35.291 30.7265 35.291C30.9102 35.8421 31.0939 36.3931 31.2832 36.9609C31.6068 38.3478 31.7552 39.6462 31.7563 41.0661C31.7564 41.1488 31.7565 41.2314 31.7566 41.3165C31.7548 42.5338 31.7036 43.6818 31.3945 44.8652C31.3694 44.9731 31.3694 44.9731 31.3438 45.0832C30.854 47.186 29.8572 49.2015 28.5 50.8769C28.4518 50.9379 28.4036 50.999 28.354 51.0618C25.7076 54.4012 21.9247 56.4625 17.7012 57C17.1124 57.0267 16.5232 57.0273 15.9338 57.0278C15.8512 57.0279 15.7686 57.028 15.6835 57.028C14.4662 57.0263 13.3182 56.9751 12.1348 56.666C12.0628 56.6493 11.9909 56.6325 11.9168 56.6153C8.04704 55.7138 4.57019 53.147 2.44225 49.8124C0.795991 47.1342 -0.0512162 44.312 -0.0348052 41.1636C-0.0345008 41.0421 -0.0345008 41.0421 -0.0341903 40.9183C-0.0291128 39.7149 0.0284609 38.5759 0.333969 37.4062C0.350706 37.3343 0.367443 37.2624 0.384687 37.1883C1.28613 33.3185 3.85292 29.8417 7.18761 27.7137C9.06809 26.5578 11.0631 25.7404 13.248 25.3828C13.2532 22.6422 13.2572 19.9016 13.2596 17.1609C13.2607 15.8884 13.2623 14.6158 13.2648 13.3433C13.267 12.234 13.2685 11.1247 13.269 10.0154C13.2693 9.42817 13.27 8.84094 13.2716 8.25371C13.2731 7.70061 13.2736 7.14752 13.2732 6.59442C13.2733 6.3918 13.2737 6.18918 13.2746 5.98656C13.2757 5.70902 13.2754 5.43151 13.2748 5.15396C13.2758 5.03489 13.2758 5.03489 13.2768 4.91341C13.2717 4.04061 13.1431 3.25221 12.5801 2.56053C11.6774 1.74817 10.754 1.7624 9.58812 1.71861C9.46901 1.7138 9.3499 1.70899 9.22717 1.70404C8.93466 1.69229 8.64213 1.68104 8.34959 1.6699C8.34959 2.22098 8.34959 2.77205 8.34959 3.33982C8.56271 3.33595 8.77582 3.33208 8.99538 3.32808C9.27414 3.32495 9.55289 3.32191 9.83165 3.31895C9.97222 3.31615 10.1128 3.31335 10.2576 3.31047C10.3921 3.30939 10.5267 3.30832 10.6653 3.30721C10.7895 3.30546 10.9137 3.30371 11.0416 3.30191C11.3555 3.33982 11.3555 3.33982 11.5393 3.45879C11.764 3.78064 11.7362 4.10155 11.7333 4.48019C11.7344 4.60426 11.7344 4.60426 11.7354 4.73083C11.7373 5.00878 11.7367 5.28667 11.7362 5.56462C11.737 5.76357 11.738 5.96252 11.739 6.16146C11.7415 6.70246 11.7418 7.24344 11.7416 7.78444C11.7416 8.23569 11.7426 8.68694 11.7435 9.13819C11.7456 10.2026 11.746 11.2669 11.7452 12.3313C11.7445 13.4302 11.747 14.5291 11.7511 15.628C11.7546 16.5707 11.7558 17.5134 11.7554 18.4561C11.7552 19.0195 11.7558 19.5829 11.7585 20.1463C11.761 20.676 11.7608 21.2057 11.7585 21.7354C11.7581 21.93 11.7587 22.1246 11.7603 22.3192C11.7623 22.5845 11.7609 22.8497 11.7586 23.115C11.76 23.1923 11.7614 23.2696 11.7628 23.3493C11.7554 23.7535 11.7125 23.9109 11.432 24.2099C11.1328 24.3808 11.1328 24.3808 10.7292 24.3739C10.23 24.2352 10.23 24.2352 10.0195 23.9355C9.97842 23.5989 9.97842 23.5989 9.97935 23.1769C9.97907 23.0993 9.97878 23.0217 9.97849 22.9418C9.97794 22.6813 9.97978 22.4208 9.9816 22.1603C9.9817 21.9738 9.98164 21.7873 9.98145 21.6008C9.98136 21.0938 9.98332 20.5869 9.98565 20.08C9.98774 19.5505 9.98794 19.0209 9.98833 18.4914C9.98937 17.4883 9.99211 16.4853 9.99546 15.4823C9.99919 14.3405 10.001 13.1987 10.0027 12.0568C10.0062 9.7078 10.0121 7.35878 10.0195 5.00975C9.86767 5.01123 9.86767 5.01123 9.71275 5.01274C8.75626 5.02169 7.79977 5.02846 6.84325 5.03282C6.35154 5.03514 5.85988 5.03828 5.3682 5.04334C4.89322 5.0482 4.41828 5.05085 3.94328 5.052C3.76255 5.05282 3.58182 5.05442 3.4011 5.05683C1.47795 5.08148 1.47795 5.08148 0.665344 4.36613C0.61569 4.30299 0.566036 4.23984 0.514877 4.17479C0.463501 4.11164 0.412125 4.0485 0.359192 3.98344C-0.117126 3.29172 -0.0727017 2.60194 -1.51843e-05 1.78123C0.181391 1.09037 0.634021 0.608167 1.22459 0.222637C1.72218 -0.0310057 2.19828 -0.0329772 2.74476 -0.0323629ZM1.78123 2.11522C1.72466 2.63646 1.72466 2.63646 1.92039 3.10325C2.40023 3.41172 2.95447 3.3543 3.50508 3.3507C3.59588 3.35054 3.68668 3.35038 3.78023 3.35022C4.06947 3.3496 4.3587 3.3482 4.64793 3.34678C4.84435 3.34622 5.04077 3.34572 5.23719 3.34526C5.71802 3.34404 6.19885 3.34211 6.67967 3.33982C6.67967 2.78875 6.67967 2.23768 6.67967 1.6699C6.10324 1.66439 5.52682 1.66035 4.95036 1.65767C4.75438 1.65655 4.55839 1.65504 4.36241 1.65311C4.08025 1.6504 3.79812 1.64914 3.51595 1.64816C3.42873 1.64701 3.3415 1.64586 3.25163 1.64468C2.65172 1.64455 2.21446 1.68199 1.78123 2.11522ZM18.9466 16.2608C18.6896 16.5705 18.6896 16.5705 18.5918 16.9219C23.4045 16.9219 28.2172 16.9219 33.1758 16.9219C32.888 16.3111 32.888 16.3111 32.4591 15.8921C32.3949 15.8387 32.3308 15.7853 32.2647 15.7303C31.5385 15.2118 30.7169 15.2353 29.8558 15.2358C29.7606 15.2354 29.6655 15.235 29.5674 15.2346C29.2548 15.2336 28.9422 15.2334 28.6296 15.2332C28.4109 15.2329 28.1923 15.2325 27.9737 15.2321C27.5161 15.2314 27.0585 15.2312 26.6009 15.2313C26.0163 15.2313 25.4318 15.2298 24.8472 15.2279C24.3958 15.2266 23.9444 15.2264 23.4931 15.2265C23.2776 15.2263 23.0622 15.2259 22.8467 15.225C22.5447 15.2239 22.2427 15.2242 21.9406 15.2249C21.8528 15.2243 21.7649 15.2236 21.6745 15.223C20.5913 15.229 19.686 15.4119 18.9466 16.2608ZM15.0293 18.5918C15.0293 19.6939 15.0293 20.7961 15.0293 21.9316C22.1932 21.9316 29.3572 21.9316 36.7383 21.9316C36.651 20.2909 36.651 20.2909 35.7294 19.1623C35.0028 18.6368 34.3694 18.5777 33.4775 18.5784C33.3587 18.5782 33.3587 18.5782 33.2375 18.5781C32.9734 18.5779 32.7093 18.5785 32.4452 18.5791C32.2554 18.5792 32.0655 18.5792 31.8757 18.5791C31.3612 18.5791 30.8467 18.5797 30.3322 18.5805C29.7942 18.5812 29.2562 18.5813 28.7182 18.5814C27.6998 18.5817 26.6814 18.5826 25.663 18.5838C24.5034 18.585 23.3438 18.5856 22.1842 18.5862C19.7992 18.5873 17.4143 18.5893 15.0293 18.5918ZM15.0293 23.6015C15.0293 24.1526 15.0293 24.7037 15.0293 25.2715C15.2002 25.2756 15.3711 25.2798 15.5472 25.2841C18.2732 25.3644 20.7138 25.8078 23.1562 27.0527C23.2623 27.1052 23.3683 27.1578 23.4776 27.2119C26.1741 28.6054 28.4762 30.9016 29.8359 33.6211C32.1137 33.6211 34.3915 33.6211 36.7383 33.6211C36.7383 30.3146 36.7383 27.0082 36.7383 23.6015C29.5743 23.6015 22.4103 23.6015 15.0293 23.6015ZM6.67967 30.3926C6.58596 30.4715 6.49225 30.5504 6.3957 30.6317C3.8396 32.834 2.17484 36.0662 1.78123 39.4101C1.74903 39.9765 1.74401 40.5408 1.74644 41.1079C1.74668 41.1841 1.74692 41.2602 1.74717 41.3387C1.75291 42.4751 1.80098 43.5433 2.11522 44.6426C2.14662 44.7573 2.14662 44.7573 2.17866 44.8744C2.73176 46.8562 3.67262 48.6463 5.00975 50.209C5.10332 50.3206 5.19689 50.4323 5.29329 50.5473C7.72359 53.3702 11.2566 55.0005 14.9437 55.2932C18.6288 55.5129 22.2729 54.323 25.0488 51.8789C25.1425 51.8 25.2362 51.721 25.3328 51.6397C27.8819 49.4435 29.5562 46.1976 29.9473 42.8613C29.9794 42.295 29.9845 41.7307 29.982 41.1636C29.9818 41.0874 29.9816 41.0112 29.9813 40.9327C29.9756 39.7964 29.9275 38.7281 29.6133 37.6289C29.5819 37.5142 29.5819 37.5142 29.5498 37.3971C28.9967 35.4153 28.0559 33.6252 26.7187 32.0625C26.6252 31.9508 26.5316 31.8392 26.4352 31.7241C24.0049 28.9012 20.4719 27.2709 16.7848 26.9782C13.0997 26.7586 9.45555 27.9484 6.67967 30.3926ZM38.4082 35.291C38.4082 36.3931 38.4082 37.4953 38.4082 38.6308C40.3921 38.6308 42.3759 38.6308 44.4199 38.6308C44.1152 36.9133 44.1152 36.9133 43.1048 35.6876C42.1186 35.2041 41.0889 35.2639 40.0155 35.2771C39.4851 35.2817 38.9547 35.2863 38.4082 35.291ZM48.2051 48.6504C48.3153 49.2015 48.4255 49.7525 48.539 50.3203C49.3692 50.3258 50.1993 50.3298 51.0294 50.3325C51.3118 50.3336 51.5942 50.3352 51.8765 50.3371C52.2825 50.3398 52.6884 50.3411 53.0944 50.342C53.2837 50.3438 53.2837 50.3438 53.4768 50.3455C53.6539 50.3456 53.6539 50.3456 53.8346 50.3456C53.9382 50.3461 54.0418 50.3466 54.1485 50.3471C54.5951 50.306 54.9009 50.1928 55.2187 49.875C55.2753 49.3537 55.2753 49.3537 55.0796 48.8869C54.6827 48.6318 54.2783 48.6367 53.8166 48.6377C53.6918 48.6377 53.567 48.6378 53.4385 48.6378C53.3044 48.6383 53.1703 48.6389 53.0322 48.6395C52.8256 48.6397 52.8256 48.6397 52.6148 48.64C52.2495 48.6405 51.8842 48.6415 51.5188 48.6427C51.1457 48.6439 50.7726 48.6444 50.3994 48.6449C49.668 48.6462 48.9365 48.6481 48.2051 48.6504Z" fill="#2DBA98"/>
<path id="Vector_2" d="M15.8156 28.5696C15.8915 28.5696 15.9674 28.5696 16.0456 28.5697C17.2767 28.5735 18.4166 28.6799 19.5938 29.0567C19.7202 29.097 19.8466 29.1373 19.9769 29.1789C23.2431 30.3383 25.8256 32.6925 27.3172 35.8059C28.1091 37.5276 28.433 39.1966 28.4304 41.087C28.4304 41.163 28.4303 41.239 28.4303 41.3173C28.4258 42.5435 28.3365 43.6965 27.9434 44.8652C27.9189 44.938 27.8945 45.0107 27.8693 45.0856C26.704 48.4265 24.3975 51.0389 21.2289 52.5817C18.2653 53.9617 14.6437 54.1382 11.5712 53.027C8.28737 51.7565 5.77068 49.4206 4.30047 46.2245C3.57294 44.5773 3.29569 42.9785 3.29811 41.1845C3.29817 41.1085 3.29823 41.0325 3.29829 40.9542C3.30278 39.728 3.39202 38.575 3.78517 37.4063C3.80962 37.3336 3.83407 37.2609 3.85926 37.1859C4.99168 33.9394 7.21734 31.3291 10.2916 29.7992C12.086 28.9396 13.8283 28.567 15.8156 28.5696ZM7.81603 33.9316C7.44567 34.3132 7.44567 34.3132 7.12502 34.7344C7.12365 34.9593 7.12365 34.9593 7.23634 35.1797C7.47892 35.3677 7.47892 35.3677 7.78951 35.525C7.90508 35.5882 8.02064 35.6514 8.13972 35.7165C8.26409 35.7828 8.38847 35.849 8.51662 35.9172C8.77227 36.0567 9.02783 36.1963 9.2833 36.336C9.40907 36.4044 9.53484 36.4728 9.66442 36.5432C10.1338 36.8011 10.5959 37.07 11.0563 37.3436C11.1312 37.3878 11.206 37.4319 11.2832 37.4773C11.6272 37.6805 11.9692 37.8863 12.3087 38.0968C12.4878 38.2062 12.4878 38.2062 12.6705 38.3178C12.7723 38.3813 12.874 38.4449 12.9789 38.5104C13.2702 38.674 13.2702 38.674 13.6934 38.5195C14.1342 38.2991 14.5751 38.0787 15.0293 37.8516C15.0293 35.3901 15.0293 32.9286 15.0293 30.3926C12.171 30.3926 9.76501 31.9854 7.81603 33.9316ZM16.6992 30.3926C16.6992 32.8541 16.6992 35.3155 16.6992 37.8516C17.8621 38.4934 17.8621 38.4934 18.4805 38.6309C18.785 38.5079 18.785 38.5079 19.1041 38.3108C19.2286 38.2386 19.3531 38.1664 19.4814 38.092C19.6163 38.0119 19.7512 37.9318 19.886 37.8516C20.0243 37.7705 20.1628 37.6895 20.3012 37.6086C20.5158 37.4832 20.7302 37.3577 20.9443 37.2316C21.4406 36.9396 21.9407 36.6553 22.4435 36.3747C22.5776 36.2994 22.7117 36.224 22.8457 36.1486C23.1003 36.0056 23.3555 35.8635 23.6112 35.7224C23.7827 35.6251 23.7827 35.6251 23.9577 35.5259C24.0586 35.4696 24.1594 35.4133 24.2633 35.3553C24.505 35.1983 24.505 35.1983 24.5949 34.9542C24.6275 34.7023 24.6275 34.7023 24.3857 34.4339C24.2813 34.3215 24.1752 34.2107 24.0678 34.1012C24.0116 34.0424 23.9554 33.9836 23.8975 33.923C23.7265 33.7461 23.5533 33.5719 23.3789 33.3985C23.2869 33.3065 23.1949 33.2145 23.1002 33.1197C21.4235 31.5314 19.0369 30.3926 16.6992 30.3926ZM6.01173 36.627C4.84558 39.4018 4.71897 42.3829 5.81691 45.2062C5.8804 45.3529 5.94468 45.4994 6.01173 45.6445C6.43541 45.5799 6.73833 45.4593 7.10545 45.2401C7.20945 45.1787 7.31346 45.1172 7.42062 45.0539C7.53202 44.9871 7.64342 44.9202 7.75819 44.8513C7.99688 44.7099 8.23563 44.5686 8.47443 44.4273C8.59898 44.3534 8.72353 44.2795 8.85185 44.2034C9.24752 43.9696 9.6456 43.7401 10.0443 43.5115C10.11 43.4738 10.1757 43.4361 10.2434 43.3973C10.5627 43.2142 10.8822 43.0314 11.2018 42.8489C11.3174 42.7825 11.433 42.7162 11.552 42.6478C11.654 42.5895 11.7559 42.5312 11.8609 42.4712C12.117 42.3155 12.3554 42.1693 12.5801 41.9707C12.6722 41.5883 12.6722 41.5883 12.6705 41.1566C12.6782 41.0124 12.6858 40.8682 12.6936 40.7196C12.5474 40.18 12.349 40.0731 11.8811 39.7982C11.7811 39.7436 11.6812 39.6891 11.5781 39.6328C11.4749 39.5734 11.3717 39.5141 11.2654 39.4529C10.9261 39.259 10.5845 39.0698 10.2422 38.8814C7.68858 37.464 7.68858 37.464 6.59447 36.764C6.34429 36.6001 6.34429 36.6001 6.01173 36.627ZM24.8188 36.9336C24.704 37.0004 24.5892 37.0672 24.4709 37.1361C24.3471 37.2092 24.2232 37.2823 24.0956 37.3576C23.967 37.4328 23.8384 37.5079 23.7098 37.5829C23.5091 37.7001 23.3083 37.8173 23.1078 37.9349C22.6295 38.2151 22.1496 38.4923 21.6686 38.7679C21.5364 38.8437 21.4042 38.9195 21.272 38.9953C21.0199 39.1397 20.7677 39.2841 20.5155 39.4282C20.401 39.494 20.2866 39.5598 20.1687 39.6276C20.0682 39.6852 19.9677 39.7428 19.8641 39.8021C19.6094 39.9573 19.3722 40.1033 19.1485 40.3008C19.0564 40.6832 19.0564 40.6832 19.058 41.1149C19.0504 41.2591 19.0428 41.4033 19.035 41.5519C19.1813 42.092 19.3816 42.1996 19.8499 42.4748C19.9491 42.5289 20.0482 42.583 20.1504 42.6387C20.2507 42.6963 20.3509 42.7539 20.4542 42.8133C20.7849 43.0019 21.1179 43.1859 21.4516 43.3693C22.5221 43.9615 23.5794 44.5717 24.6238 45.209C24.719 45.2664 24.8142 45.3237 24.9123 45.3827C25.037 45.4588 25.037 45.4588 25.1642 45.5364C25.3921 45.6692 25.3921 45.6692 25.7168 45.6445C26.883 42.8697 27.0096 39.8886 25.9116 37.0653C25.8481 36.9186 25.7839 36.7721 25.7168 36.627C25.3152 36.627 25.1633 36.7314 24.8188 36.9336ZM14.584 40.0781C14.2492 40.5594 14.1788 40.9453 14.25 41.5254C14.4438 42.0745 14.746 42.4194 15.2681 42.6765C15.6864 42.8254 16.0421 42.8254 16.4605 42.6765C16.9833 42.419 17.2832 42.0744 17.4785 41.5254C17.5568 40.9775 17.4742 40.6007 17.1811 40.1425C16.8204 39.7139 16.4153 39.5479 15.8712 39.4589C15.3456 39.5419 14.987 39.7332 14.584 40.0781ZM12.6166 43.9646C12.491 44.0374 12.3653 44.1102 12.2359 44.1853C12.1001 44.2658 11.9644 44.3463 11.8286 44.4269C11.6895 44.5081 11.5504 44.5893 11.4112 44.6703C11.1252 44.8369 10.8398 45.0043 10.5547 45.1724C10.1516 45.41 9.74727 45.6452 9.34245 45.8798C8.88346 46.1461 8.4246 46.4126 7.9665 46.6804C7.87615 46.7332 7.7858 46.786 7.69272 46.8404C7.5001 46.9558 7.31187 47.0786 7.12502 47.2031C7.21931 47.8647 7.79845 48.2982 8.2383 48.7617C8.30445 48.8338 8.37061 48.9058 8.43877 48.98C10.1429 50.7777 12.6202 51.6782 15.0293 51.8789C15.0293 49.4175 15.0293 46.956 15.0293 44.4199C13.7639 43.6357 13.7639 43.6357 12.6166 43.9646ZM17.7151 43.905C17.3713 44.1356 17.0982 44.2604 16.6992 44.4199C16.6992 46.8814 16.6992 49.3429 16.6992 51.8789C19.9186 51.6106 22.3403 50.1177 24.4813 47.748C24.6251 47.5462 24.6251 47.5462 24.5853 47.3204C24.4585 47.0091 24.3089 46.945 24.0151 46.7865C23.9136 46.7306 23.8121 46.6747 23.7075 46.6171C23.5968 46.5579 23.486 46.4987 23.372 46.4378C23.1386 46.3097 22.9054 46.1814 22.6722 46.0529C22.5508 45.9864 22.4294 45.9198 22.3043 45.8513C21.6919 45.5115 21.0883 45.1572 20.4844 44.8026C20.1671 44.6167 19.8497 44.4308 19.532 44.2455C19.3615 44.1456 19.1915 44.0447 19.0223 43.9425C18.4834 43.621 18.2397 43.5519 17.7151 43.905Z" fill="#2DBA98"/>
<path id="Vector_3" d="M40.9417 46.2507C42.2304 47.1442 43.0853 48.4401 43.4179 49.9862C43.5808 52.003 43.223 53.4614 42.0611 55.1212C41.1993 56.0901 39.8095 56.9137 38.4982 57.0196C36.5073 57.0711 34.8883 56.801 33.3597 55.4126C32.0287 54.0093 31.6717 52.436 31.6976 50.5755C31.7483 49.1434 32.4709 47.7429 33.5097 46.7577C35.6571 44.9759 38.5859 44.7378 40.9417 46.2507ZM34.8804 47.9475C33.9382 48.8898 33.4828 49.8197 33.461 51.1413C33.4662 51.9091 33.5604 52.5414 33.955 53.2148C34.0009 53.2931 34.0469 53.3715 34.0942 53.4522C34.7348 54.4095 35.749 55.0252 36.8617 55.2704C38.1326 55.4709 39.2071 55.0277 40.2659 54.3628C41.2082 53.4206 41.6635 52.4907 41.6854 51.1691C41.6801 50.4013 41.586 49.7689 41.1913 49.0956C41.1454 49.0173 41.0995 48.9389 41.0522 48.8582C40.4116 47.9009 39.3974 47.2852 38.2846 47.04C37.0138 46.8394 35.9393 47.2827 34.8804 47.9475Z" fill="#2DBA98"/>
<path id="Vector_4" d="M38.7909 48.8243C39.4168 49.1974 39.8556 49.7396 40.0782 50.4316C40.1714 51.2781 40.1723 52.077 39.6328 52.7695C39.1475 53.2836 38.6753 53.6184 37.9573 53.6975C37.0708 53.7081 36.4195 53.6588 35.7646 53.0274C35.109 52.2963 34.9983 51.7149 35.0262 50.7334C35.1009 50.002 35.4272 49.589 35.959 49.1096C36.7708 48.5346 37.8671 48.4088 38.7909 48.8243ZM36.9679 50.5499C36.7813 50.8902 36.809 51.1653 36.8496 51.5449C36.9517 51.7768 36.9517 51.7768 37.1836 51.8789C37.5632 51.9195 37.8383 51.9472 38.1786 51.7606C38.3653 51.4202 38.3376 51.1451 38.2969 50.7656C38.1949 50.5336 38.1949 50.5336 37.9629 50.4316C37.5834 50.3909 37.3083 50.3632 36.9679 50.5499Z" fill="#2DBA98"/>
</g>
<defs>
<clipPath id="clip0_10_196">
<rect width="57" height="57" fill="white"/>
</clipPath>
</defs>
</svg>
